<svg xmlns="http://www.w3.org/2000/svg" width="400" height="400" xmlns:v="https://vecta.io/nano"><path d="M0 0h400v400H0V0z"/><path d="M161.693 79.823l2.658-.02 8.708-.041 3.015-.012 15.82-.045 16.259-.085 12.568-.038 5.988-.035c16.168-.142 29.825.884 42.29 12.453 5.026 5.717 8.139 11.644 10 19l.559 1.961c2.327 10.75-1.02 20.894-6.559 30.039-5.779 8.381-14.302 14.645-24.398 16.688L246 160l2.309.664c12.478 3.832 20.836 9.527 27.441 20.836 5.118 9.808 5.877 20.064 2.688 30.688-4.016 10.644-10.744 19.101-21.094 24.094-10.079 4.15-20.553 5.661-31.156 2.156C214.965 233.751 206.706 225.101 202 214l-1-3-.004 2.798-.128 26.256-.063 13.495-.078 13.052-.013 4.95c.028 13.238-1.782 24.98-10.718 35.453-8.566 8.566-18.996 13.009-31.121 13.496-11.493-.454-21.726-5.92-29.625-14.125-8.242-9.909-10.115-21.945-9.25-34.375 2.341-11.254 9.747-20.415 19-27 4.547-2.506 8.89-4.087 14-5l-2.09-.664c-11.819-3.988-21.166-10.074-27.223-21.273-4.083-9.041-5.497-19.662-2.777-29.281 4.561-11.614 11.432-20.333 22.84-25.594 2.736-1.181 5.423-2.245 8.25-3.187l-2.125-.664c-11.449-3.827-20.369-10.474-26.187-21.273-4.532-9.999-5.284-21.175-1.719-31.59 4.996-11.978 12.639-19.492 24.551-24.562 5.096-1.87 9.772-2.07 15.174-2.087z" fill="#a057fd"/><path d="M161.693 79.823l2.658-.02 8.708-.041 3.015-.012 15.82-.045 16.259-.085 12.568-.038 5.988-.035c16.168-.142 29.825.884 42.29 12.453 5.026 5.717 8.139 11.644 10 19l.559 1.961c2.327 10.75-1.02 20.894-6.559 30.039-5.578 8.09-13.872 14.45-23.626 16.571-4.188.533-8.292.593-12.51.606l-2.727.02-8.899.041-3.084.012-16.163.045-16.63.085-12.846.038-6.127.035c-14.28.122-26.34-.295-37.388-10.453-8.822-8.714-12.911-18.052-13.312-30.437.25-10.567 4.257-19.936 11.316-27.793 8.872-8.459 18.645-11.907 30.689-11.947z" fill="#ef4d1e"/><path d="M200 81l23.813-.25 7.448-.11 5.946-.03 3.036-.062c10.656-.005 19.376 3.18 27.464 10.125 8.036 8.16 12.291 18.091 12.605 29.516-.43 11.372-5.108 21.395-12.867 29.699-9.866 8.526-19.569 10.278-32.094 10.211l-2.722-.003-10.005-.032L200 160V81z" fill="#fe7060"/><path d="M157.882 239.886h2.85l3.037.016 3.14.004 9.903.031 6.725.014L200 240l.275 19.366.103 6.572c.3 15.494.199 28.665-10.381 41.065-8.566 8.566-18.996 13.009-31.121 13.496-11.493-.454-21.726-5.92-29.625-14.125-8.242-9.909-10.115-21.945-9.25-34.375 2.341-11.254 9.747-20.415 19-27 6.099-3.361 11.89-5.132 18.882-5.114z" fill="#08cd82"/><path d="M200 160l18.512-.22 6.281-.082c16.374-.266 31.327-.055 43.914 11.927 8.17 8.935 11.837 18.909 11.602 30.969-.97 10.709-5.714 19.988-13.41 27.441-10.344 8.608-21.717 10.946-34.898 9.965-10.779-2.294-19.705-9.049-26-18-5.103-8.504-6.297-16.182-6.195-25.965l.009-3.131.062-9.841.027-6.697L200 160z" fill="#19b9fb"/><path d="M200 160h32c-2.194 2.194-3.145 2.421-6.062 3.188-8.866 2.837-16.753 9.893-21.156 18.078-1.777 3.834-3.236 7.512-3.781 11.734h-1v-33z" fill="#030405"/></svg>