<svg xmlns="http://www.w3.org/2000/svg" width="379" height="379" xmlns:v="https://vecta.io/nano"><path d="M18 18c3.82.955 4.545 1.17 7.1 3.731l1.787 1.769 1.934 1.96 2.077 2.069 6.886 6.914 4.938 4.936 13.406 13.444 12.59 12.613 24.934 24.989 24.218 24.279 1.508 1.511 7.492 7.503L189 186c3.037-1.45 5.099-2.877 7.438-5.312l1.832-1.887L200 177l7.563-7.5c2.432-2.394 2.432-2.394 4.25-4.875 2.515-3.018 5.33-5.394 8.313-7.937 2.009-1.716 2.009-1.716 3.875-4.187 2.31-2.887 4.911-5.077 7.715-7.473 4.291-3.807 8.261-7.944 12.285-12.027l5-5 3.263-3.263 66.169-66.169 4.287-4.288 5.769-5.753 10.505-10.466 4.533-4.513 6.551-6.529 2.058-2.042 1.892-1.892 1.67-1.663c1.409-1.409 1.409-1.409 2.301-3.422h3v343c-4.015-1.004-4.799-1.426-7.543-4.189l-2.073-2.065-2.242-2.28-2.386-2.39-7.795-7.858-5.417-5.437-12.795-12.874-24.288-24.426-7.987-8.045-4.875-4.904-2.254-2.28-2.056-2.065-1.789-1.803c-1.469-1.486-1.469-1.486-3.5-2.385v2c-1.29 1.27-1.29 1.27-3.183 2.814-6.307 5.369-12.052 11.297-17.891 17.163l-3.764 3.768-9.843 9.868-10.009 10.028-16.16 16.198-11.791 11.767-2.609 2.582-2.641 2.605c-2.139 2.021-2.139 2.021-3.109 4.207-2.491.471-2.491.471-6 0-3.055-2.166-5.555-4.85-8.145-7.543l-2.407-2.428-5.146-5.245-8.146-8.279-15.813-16.07-21.518-21.85-8.023-8.195-4.915-4.975-2.251-2.334-2.081-2.087-1.798-1.835c-1.709-1.387-1.709-1.387-3.916-.966-2.467 1.083-2.688 2.432-3.84 4.808l-4 2-1 2c-1.264 2.528-2.528 2.764-5 4-1.092 1.933-1.092 1.933-2 4-1.5 1.75-1.5 1.75-3 3h-2l-.75 1.875c-1.487 2.529-2.687 2.843-5.25 4.125l-1 2c-1.264 2.528-2.528 2.764-5 4-1.092 1.933-1.092 1.933-2 4-1.5 1.75-1.5 1.75-3 3h-2l-.75 1.875c-1.487 2.529-2.687 2.843-5.25 4.125l-2 4a141.4 141.4 0 0 1-5 5l-2.187 2.313C46 337 46 337 44 337l-.75 1.875c-1.487 2.529-2.687 2.843-5.25 4.125l-2 4a141.4 141.4 0 0 1-5 5l-2.187 2.313C27 356 27 356 25 356l-.687 1.938L23 360l-5 1V18z" fill="#5a529e"/><path d="M18 18c3.82.955 4.545 1.17 7.1 3.731l1.787 1.769 1.934 1.96 2.077 2.069 6.886 6.914 4.938 4.936 13.406 13.444 12.59 12.613 24.934 24.989 24.218 24.279 1.508 1.511 7.492 7.503L189 186c3.037-1.45 5.099-2.877 7.438-5.312l1.832-1.887L200 177l7.563-7.5c2.432-2.394 2.432-2.394 4.25-4.875 2.506-3.007 5.309-5.376 8.281-7.91 2.264-2.037 4.117-4.254 5.906-6.715l2 1c-5.153 6.816-10.31 12.648-17 18l-5 5-2.5 2.438c-2.573 2.57-2.573 2.57-5 5.563-2.374 2.848-4.77 5.491-7.5 8h-2l-.687 1.688c-2.214 3.902-5.493 6.591-8.828 9.527l-2.734 2.41-2.641 2.289c-2.328 1.987-2.328 1.987-3.109 5.086-2.215 2.043-2.215 2.043-4.937 4.188l-2.715 2.168C161 219 161 219 159 219v2c-1.62 1.712-3.296 3.372-5 5l-2.562 2.688C149 231 149 231 146.813 232.063c-2.351 1.216-2.685 2.607-3.812 4.938l-3 1v2l-3.379 3.387c-4.533 4.511-8.658 9.449-12.746 14.363-2.694 3.169-5.642 5.636-8.875 8.25l-5 5-3 3c1.402 4.461 3.598 6.847 7 10l3 3-1 3-2.266-2.441-2.984-3.121-1.488-1.615c-1.614-1.725-1.614-1.725-4.262-3.822-2.289-.144-2.289-.144-4 1l-2 4-4 2-1 2c-1.264 2.528-2.528 2.764-5 4-1.092 1.933-1.092 1.933-2 4-1.5 1.75-1.5 1.75-3 3h-2l-.75 1.875c-1.487 2.529-2.687 2.843-5.25 4.125l-1 2c-1.264 2.528-2.528 2.764-5 4-1.092 1.933-1.092 1.933-2 4-1.5 1.75-1.5 1.75-3 3h-2l-.75 1.875c-1.487 2.529-2.687 2.843-5.25 4.125l-2 4a141.4 141.4 0 0 1-5 5l-2.187 2.313C46 337 46 337 44 337l-.75 1.875c-1.487 2.529-2.687 2.843-5.25 4.125l-2 4a141.4 141.4 0 0 1-5 5l-2.187 2.313C27 356 27 356 25 356l-.687 1.938L23 360l-5 1V18z" fill="#bb4d96"/><path d="M360 190h1v171c-4.015-1.004-4.799-1.426-7.543-4.189l-2.073-2.065-2.242-2.28-2.386-2.39-7.795-7.858-5.417-5.437-12.795-12.874-24.288-24.426-7.987-8.045-4.875-4.904-2.254-2.28-2.056-2.065-1.789-1.803c-1.469-1.486-1.469-1.486-3.5-2.385v2l-3.625 3.313-2.195 1.867L266 287l-1.867 1.57L260 292c1.373-4.494 3.278-6.23 7-9 2.71-2.584 4.921-4.881 7-8l2.226-.769c4.01-1.779 6.28-4.685 9.165-7.926 6.372-6.971 12.919-13.741 19.594-20.422l1.446-1.448 7.335-7.33 7.555-7.558 5.883-5.883 4.133-4.138 2.522-2.512 2.211-2.209C338 213 338 213 341 211l1-3c1.566-1.578 1.566-1.578 3.563-3.25l2.168-1.848 4.508-3.773 2.137-1.816 1.961-1.637c1.76-1.772 2.68-3.395 3.664-5.676z" fill="#5571b4"/><path d="M18 20h2c1.235 6.712 1.135 13.354 1.115 20.163v4.13l-.016 11.527-.013 10.083-.531 156.506-.127 30.637-.009 2.21-.045 10.986L20 356l2 1-2 3h-2V20z" fill="#a15788"/><path d="M360 190h1v169l-1-2-2-.437-2-.562-1-3 4 1-.021-2.524-.474-60.738-.229-29.372-.196-25.593-.107-13.558-.094-12.75-.041-4.69-.042-6.383-.028-3.615C358 192 358 192 360 190z" fill="#5a71a0"/><path d="M359 20h2v170c-2-2-2-2-2.243-4.736l.01-3.558-.003-1.979.026-6.594.004-4.715.026-10.169.037-16.07.057-25.414.1-45.518.041-15.984.023-9.935.016-4.616.015-6.289.011-3.559c.012-2.936.012-2.936-1.117-5.862l-2-1 3-4z" fill="#5a578d"/><path d="M186 188l3 1c-1.101 7.435-8.021 11.548-13.539 15.816-2.389 2.12-3.099 3.411-4.461 6.184-2.312 2.141-2.312 2.141-5 4.25l-2.687 2.141C161 219 161 219 159 219v2c-1.62 1.712-3.296 3.372-5 5l-2.562 2.688C149 231 149 231 146.813 232.063c-2.351 1.216-2.685 2.607-3.812 4.938l-3 1v2l-3.379 3.387c-4.533 4.511-8.658 9.449-12.746 14.363-2.694 3.169-5.642 5.636-8.875 8.25l-5 5-1.875 1.563L107 274c.228 2.163.228 2.163 1 4l-2.375-.562c-2.596-.697-2.596-.697-4.625.563v-3h2l.625-1.625c1.908-3.295 4.423-5.969 7.375-8.375h2l2-5h2v-2c1.609-1.551 1.609-1.551 3.75-3.312 2.532-2.135 4.499-4.004 6.563-6.625L129 246h3l.5-2.062c1.879-3.679 4.325-5.618 7.473-8.23 2.22-1.813 2.22-1.813 4.777-4.52C147 229 147 229 149.188 228c2.038-.86 2.038-.86 2.563-3.187 1.635-3.678 4.019-5.426 7.082-7.965 2.761-2.353 5.233-4.928 7.723-7.562C168 208 168 208 170 208l1-4h2v-2c1.574-1.48 1.574-1.48 3.688-3.187 3.87-3.272 6.548-6.58 9.313-10.812z" fill="#9f539c"/><path d="M189 190c.727 1.754.727 1.754 1 4-1.477 1.965-1.477 1.965-3.625 3.938l-2.102 1.965L182 202l-10.92 10.952-17.361 17.433-10.484 10.531-10.171 10.21-3.867 3.889-5.406 5.421-1.604 1.626c-2.548 2.534-4.822 4.598-8.186 5.938 1.454-3.485 3.287-5.306 6.188-7.687 4.648-4.008 8.157-8.415 11.813-13.312 1.932-2.422 3.906-4.711 6-7h2v-2c1.574-1.551 1.574-1.551 3.688-3.312 4.194-3.573 8.107-7.137 11.5-11.5L157 221h2v-2l6-4 2.25-2.25L169 211h2l.203-1.723c1.112-3.179 3-4.541 5.547-6.715l2.734-2.379L182 198c2.689-2.51 4.945-4.918 7-8z" fill="#704f95"/><path d="M358 18h3c0 2 0 2-2.187 4.375-2.521 2.353-5.122 4.473-7.812 6.625-2.52 2.397-4.827 4.784-7 7.5-3.551 4.439-7.579 7.964-12 11.5-2.52 2.397-4.827 4.784-7 7.5-3.551 4.439-7.579 7.964-12 11.5-2.52 2.397-4.827 4.784-7 7.5-3.551 4.439-7.579 7.964-12 11.5-2.52 2.397-4.827 4.784-7 7.5-3.551 4.439-7.579 7.964-12 11.5l-2.562 2.625c-2.183 2.127-3.734 3.129-6.437 4.375 5.26-6.381 11.054-12.182 16.91-18.008l3.167-3.163 8.295-8.27 8.419-8.4 14.826-14.784 4.97-4.963 5.902-5.887 10.505-10.466 4.533-4.513 6.551-6.529 2.058-2.042 1.892-1.892 1.67-1.663c1.409-1.409 1.409-1.409 2.301-3.422z" fill="#b9b4d4"/><path d="M357 193l2 1-2.012 1.793c-5.629 4.994-5.629 4.994-10.988 10.27-2 1.938-2 1.938-4 1.938l-.223 1.742c-1.056 3.069-2.735 4.289-5.204 6.378-5.481 4.766-10.618 9.796-15.737 14.946l-2.782 2.786-7.21 7.235-7.402 7.422L289 263c0-3 0-3 2.032-5.373l2.823-2.776 1.511-1.498 4.821-4.728 3.197-3.156 5.936-5.837c5.471-5.365 5.471-5.365 10.73-10.936 5.224-5.72 10.371-11.336 16.316-16.324 3.525-2.96 6.544-6.254 9.445-9.809 3.246-3.864 7.057-6.7 11.188-9.562zm-71 70l2 1-10 11-3-1 3.25-3.812 1.828-2.145c1.846-1.962 3.721-3.5 5.922-5.043z" fill="#5561a7"/><path d="M337 43l2 1-3.312 3.813-1.863 2.145L329 55h-2l-.625 1.688c-1.526 2.567-3.367 4.012-5.687 5.848-1.832 1.59-3.318 3.292-4.875 5.152-2.884 3.395-5.986 6.35-9.312 9.313a104.45 104.45 0 0 0-10.73 11.039C292.484 91.68 288.727 94.822 285 98c0-4.802 3.2-7.18 6.438-10.5L294 85l2.438-2.5C299 80 299 80 302.063 77.5c2.75-2.34 4.736-4.659 6.938-7.5l5-5 2.5-2.562C319 60 319 60 321.563 58c2.582-2.119 4.386-4.372 6.438-7 2.83-2.971 5.643-5.637 9-8z" fill="#645b99"/><path d="M70 309l3 1-3 1-2 4c-1.5 1.75-1.5 1.75-3 3h-2l-.75 1.875c-1.487 2.529-2.687 2.843-5.25 4.125l-2 4-5 5-2.187 2.313C46 337 46 337 44 337l-.75 1.875c-1.487 2.529-2.687 2.843-5.25 4.125l-2 4-5 5-2.187 2.313C27 356 27 356 25 356l-.687 1.938C23 360 23 360 20.375 360.75L18 361l2-1 1-3c2.918-3.2 6.134-6.006 9.375-8.875 6.589-5.885 12.764-12.181 18.976-18.46L56 323l2.25-2.25L70 309z" fill="#e7c3da"/><path d="M220 330l2 1-11.389 11.389-4.208 4.213-5.043 5.004-2.609 2.582-2.641 2.605c-2.139 2.021-2.139 2.021-3.109 4.207-3.028.479-5.149.605-7.714-1.219l-5.161-5.281-1.797-1.879L174 348l2-1 6 5v2l1.938.813C186 356 186 356 187 359c6.33-2.17 10.399-6.284 15-11l2.563-2.5c2.458-2.429 2.458-2.429 4.438-5.062 2.116-2.579 4.37-4.399 7-6.437l4-4z" fill="#aaa6ca"/><path d="M226 150l2 1c-5.153 6.816-10.31 12.648-17 18l-5 5-2.5 2.438c-2.573 2.57-2.573 2.57-5 5.563-2.381 2.857-4.837 5.413-7.5 8l-3-1c-.687-2.062-.687-2.062-1-4l1.723.758c2.434.525 2.434.525 4.461-1.453l2.254-2.43 2.387-2.523L200 177l7.563-7.5c2.432-2.394 2.432-2.394 4.25-4.875 2.506-3.007 5.309-5.376 8.281-7.91 2.264-2.037 4.117-4.254 5.906-6.715z" fill="#bfbbd8"/><path d="M264 113c0 5.012-4.15 8.128-7.5 11.563L254 127l-2.437 2.5c-2.734 2.667-5.629 5.056-8.562 7.5-2.562 2.44-4.876 4.843-7.062 7.625-1.824 2.235-3.562 3.763-5.937 5.375l-2-1 36-36z" fill="#c2bcd9"/><path d="M142 315l2.25.938c2.595 1.134 2.595 1.134 4.875 1.313 3.009 1.203 3.525 3.932 4.875 6.75l3 1c2.194 2.969 3.831 5.492 5 9 1.933 1.092 1.933 1.092 4 2l2 2-1 3-10.681-10.626-3.638-3.617-5.212-5.19-1.657-1.641L142 316v-1z" fill="#b2aecd"/><path d="M117 290c4.283.476 6.156 2.948 9 6l2.813 2.688C131 301 131 301 131 303l3.313.625C138 305 138 305 139.875 307.875c.86 2.389 1.539 4.665 2.125 7.125-5.791-4.812-11.128-9.977-16.437-15.312l-2.506-2.494-2.365-2.369-2.15-2.154C117 291 117 291 117 290z" fill="#c8c5de"/><path d="M333 335l4 1 2.188.375L341 337l1 3c1.534 1.483 1.534 1.483 3.375 2.875 2.934 2.433 5.083 4.558 6.625 8.125l-1 3-9-8.937-2.602-2.576-2.461-2.451-2.285-2.269C333 336 333 336 333 335z" fill="#9dadcb"/><path d="M103 276c6.083 2.086 10.43 5.645 14 11l-1 3-2.266-2.441-2.984-3.121-1.488-1.615c-1.614-1.725-1.614-1.725-4.262-3.822-2.289-.144-2.289-.144-4 1l-2 4-4 2c-1.268 2.034-1.268 2.034-2 4l-1-3c1.75-2.687 1.75-2.687 4-5h3l.875-1.875C101 278 101 278 103 276z" fill="#c7bdda"/><path d="M41 338l1 3-1.875.75c-2.567 1.51-2.843 2.611-4.125 5.25l-5 5-2.187 2.313C27 356 27 356 25 356l-.687 1.938C23 360 23 360 20.375 360.75L18 361l2-1 1-3c3.891-4.267 8.316-7.994 12.617-11.84 2.551-2.312 4.989-4.687 7.383-7.16z" fill="#e1bdd5"/><path d="M23 21c6.784 5.55 12.855 11.764 19 18l-3 1c-4.455-2.413-6.507-4.693-9-9l-2-.937c-3.026-1.607-3.717-3.984-5-7.062v-2z" fill="#e0b3ce"/><path d="M132 130c4.729 3.869 9.113 8.003 13.438 12.313l1.649 1.636C151 147.876 151 147.876 151 149h-5l-1-5-5-1-1-5-1.812-.25c-2.838-.973-3.684-2.194-5.187-4.75v-3z" fill="#dba9ca"/><path d="M277 279c1.875.25 1.875.25 4 1l2 4c1.917 1.167 1.917 1.167 4 2l3 2 1-2 .875 2.875c.893 3.177.893 3.177 3.125 5.125l-1 3-8.5-8.437-2.457-2.432-2.324-2.314-2.158-2.142C277 280 277 280 277 279z" fill="#b6c2dd"/><path d="M130 247l2 1c-5.197 6.653-10.388 12.721-17 18 0-5.04 3.727-8.373 7-12 2.75-1.812 2.75-1.812 5-3 1.783-2.07 1.783-2.07 3-4z" fill="#93519b"/><path d="M89 290l3 1-3 1-2 4c-1.5 1.75-1.5 1.75-3 3h-2l-.75 1.875c-1.487 2.529-2.687 2.843-5.25 4.125-1.268 2.034-1.268 2.034-2 4l-1-3c3.144-4.462 6.979-7.871 11.133-11.387 1.704-1.472 3.297-3 4.867-4.613z" fill="#e7c5db"/><path d="M254 299l-12 12-1-2 3-6h2l1-4c4.75-1.125 4.75-1.125 7 0z" fill="#9591b8"/><path d="M295 297c1.941.375 1.941.375 4 1l.938 2 1.063 2c2.484.663 2.484.663 5 1 2 2 2 2 2.125 4.625L308 310a85.13 85.13 0 0 1-13-13z" fill="#acb8d3"/><path d="M219 160l1 2-3 4-2-1 4-5zm-6 6h2c-1.477 3.452-3.438 5.65-6.125 8.25l-2.195 2.141L205 178l-1-3 2.25-1.687c2.825-2.221 2.825-2.221 4.938-5.062L213 166z" fill="#685f9a"/><path d="M274 276l3 1-1 2-2-1v2l-3.625 3.313-2.195 1.867L266 287l-1.867 1.57L260 292c1.373-4.494 3.278-6.23 7-9l5-5 2-2z" fill="#b3b1cf"/><path d="M186 188l3 2c-4.216 5.165-8.619 10.013-14 14h-2v-2c1.574-1.48 1.574-1.48 3.688-3.187 3.87-3.272 6.548-6.58 9.313-10.812z" fill="#a9529b"/><path d="M81 79a85.13 85.13 0 0 1 13 13c-3.235-.702-4.892-1.365-7-4v-2l-1.875-.875C83 84 83 84 81 82v-3z" fill="#e5bbd8"/><path d="M174 347c3.337 1.173 5.774 2.189 8 5v2l1.938.75C186 356 186 356 186.629 358.078L187 360a85.13 85.13 0 0 1-13-13z" fill="#d0cee0"/><path d="M279 98l2 1-2.25 2.188c-2.734 2.695-2.734 2.695-4.812 5.438-1.824 2.235-3.562 3.763-5.937 5.375l-2-1 13-13z" fill="#b4b0d0"/><path d="M176 174c4.136 3.381 7.813 6.666 11 11-2.951-.632-5.489-1.299-8-3-3-5.143-3-5.143-3-8z" fill="#e2b5d1"/><path d="M265 112l3 1c-1.503 3.668-3.637 5.689-6.625 8.25l-2.477 2.141L257 125l-2-1 2.25-1.687c3.622-3.046 6.242-5.79 7.75-10.312z" fill="#7168a1"/><path d="M199 350l1 3c-1.865 3.117-4.225 5.666-7 8-3.437.5-3.437.5-6 0v-2l2.188-.75c4.36-1.938 7.171-4.287 9.813-8.25z" fill="#a6a3c5"/><path d="M156 329c1.875.25 1.875.25 4 1l2 4c1.967 1.15 1.967 1.15 4 2l2 2-1 3-5.5-5.437-1.59-1.564L156 330v-1z" fill="#ccc9df"/><path d="M134 304c2.375.688 2.375.688 5 2 1.527 2.901 2.219 5.836 3 9-6.705-5.094-6.705-5.094-7.937-8.875L134 304z" fill="#9f9bc1"/><path d="M18 18c1.859.246 1.859.246 4 1 1.266 1.848 1.266 1.848 2.25 4.063l1.016 2.223L26 27h-6v-7h-2v-2z" fill="#c082a9"/><path d="M101 278l3 1-3 1-.937 1.938c-1.32 2.563-2.544 2.803-5.062 4.063-1.268 2.034-1.268 2.034-2 4l-1-3c1.75-2.687 1.75-2.687 4-5h3l2-4z" fill="#e9c6de"/><path d="M239 311l2 1-12 12-1-2 2.25-2.187c2.751-2.718 2.751-2.718 4.938-5.562C237 312 237 312 239 311z" fill="#aca9cc"/><path d="M232 147l1 3-1.812.688c-2.759 1.656-3.601 3.554-5.187 6.313l-3 2c.711-4.798 3.564-7.843 7.25-10.812L232 147z" fill="#726aa1"/><path d="M132 130c7.483 6.15 7.483 6.15 10 10h-3v-2l-1.812-.25c-2.838-.973-3.684-2.194-5.187-4.75v-3z" fill="#e6bad6"/><path d="M352 354c2.925.627 5.484 1.351 8 3 .75 2.125.75 2.125 1 4-2.379-.176-3.702-.697-5.379-2.402L352 354z" fill="#b2bcd1"/><path d="M33 33c2.379.176 3.702.697 5.379 2.402L42 40c-3.486-.646-6.125-1.924-9-4v-3z" fill="#daa8c5"/><path d="M238 139c0 3.977-1.38 5.089-4 8l-4 3-2-1 10-10z" fill="#c0bcd9"/><path d="M245 131l4 1-2.75 2.25A89.11 89.11 0 0 0 239 141c.505-4.379 3.178-6.817 6-10z" fill="#b1aacf"/><path d="M278 102c0 3 0 3-1.75 4.824l-2.25 1.863-2.25 1.887L270 112l-2-1 2.188-1.687c2.787-2.292 5.299-4.727 7.813-7.312z" fill="#675e9a"/><path d="M214 162h3c-1.757 4.313-4.806 7.903-9 10 .509-4.41 3.034-6.893 6-10z" fill="#b6b1d1"/><path d="M208 342l2 1c-3.17 3.26-6.399 6.222-10 9 1.557-3.822 4.034-6.186 7-9l1-1z" fill="#bab5d5"/><path d="M81 294h3c-1.583 4.274-4.506 6.265-8 9 .313-1.937.313-1.937 1-4l3-1c.733-2.015.733-2.015 1-4z" fill="#b35a94"/><path d="M289 88c0 3.995-1.289 5.142-4 8-2.75 1.313-2.75 1.313-5 2l2.813-3.312 1.582-1.863L289 88z" fill="#c0bcd9"/><path d="M353 26l1 2c-5 6.571-5 6.571-10 8l2.813-3.312 1.582-1.863C349.872 29.146 351.4 27.561 353 26z" fill="#6c63a0"/><path d="M333 44c0 3 0 3-2.25 5.563-2.309 2.047-4.016 3.17-6.75 4.438l2.813-3.312 1.582-1.863L333 44z" fill="#c3bfd9"/><path d="M296 81l3 1-2.25 1.75A77 77 0 0 0 290 90c.472-4.248 2.967-6.2 6-9z" fill="#afabcc"/><path d="M117 290c3.342.597 5.464 1.736 8 4v2c-3.255-.349-4.019-1.021-6.25-3.562L117 290z" fill="#b9b7d0"/><path d="M333 335c3.837.959 4.597 1.236 7 4l-1 3-6-7z" fill="#bec7df"/><path d="M163 161l7 6-3 1-4-4v-3z" fill="#e6c3d8"/><path d="M125 123l7 6-3 1-4-4v-3z" fill="#e8bcdb"/><path d="M100 98l7 6-3 1-4-4v-3z" fill="#e4bed8"/><path d="M174 347c3.914 1.269 5.791 2.512 8 6-3.255-.349-4.019-1.021-6.25-3.562L174 347z" fill="#bfbddc"/><path d="M20 344c2 1 2 1 2.813 3.375L23 350l-3 3v-9z" fill="#b0508d"/><path d="M320 322c2.915 1.074 4.778 1.778 7 4l-1 3-6-7z" fill="#bfc7e5"/><path d="M193 184c0 3 0 3-2 6l-3-1c-.687-2.062-.687-2.062-1-4l1.875.625L191 186l2-2z" fill="#d2c2de"/><path d="M245 134h2c-1.293 2.884-2.659 4.872-5 7l-2-1 5-6z" fill="#685e9a"/><path d="M118 116l7 6-3 1c-4-4.75-4-4.75-4-7z" fill="#e5c0d9"/><path d="M264 113c0 4.39-2.128 5.769-5 9l-1-3 6-6z" fill="#b7b4d5"/><path d="M68 66l7 6-2 1-5-4v-3z" fill="#e2c1d6"/><path d="M61 59l7 6-3 1c-4-4.75-4-4.75-4-7z" fill="#e9c4dd"/><path d="M42 40l7 6-3 1c-4-4.75-4-4.75-4-7z" fill="#e6c2d9"/><path d="M2 298l2 1zm191-172l2 1z" fill="#fff"/></svg>