<svg xmlns="http://www.w3.org/2000/svg" width="379" height="379" xmlns:v="https://vecta.io/nano"><path d="M268.688 18.188l2.196.054c5.05.271 8.139 1.402 12.116 4.759 1.864 2.988 2.248 5.244 2.23 8.738l-.006 2.736-.037 2.838-.002 2.803c-.025 3.869-.14 7.566-.693 11.4-.658 4.656-.599 9.227-.555 13.922l.014 2.795L284 75l2.117.184 2.758.254 2.742.246C294 76 294 76 296 77v2h3v2l2.563.313c4.983.997 10.288 2.426 13.438 6.688v2l6 2v2l3 1c4.246 6.744 5.121 11.66 4.873 19.551-.063 3.741-.008 5.246 2.127 8.449.301 2.754.509 5.426.625 8.188l.117 2.271L332 139h2v3h2c3.088 7.334 2.977 14.166.063 21.5-.97 2.198-1.988 4.351-3.062 6.5h-2l-2 5h-2l-.332 2.184c-1.445 6.093-5.03 11.318-9.605 15.504-4.971 2.13-9.044.573-14.062-.687l.411 1.812c3.333 15.501 5.912 36.941-2.532 51.087-1.615 3.861-1.478 8.011-1.605 12.148-.269 2.9-.876 4.455-2.273 6.953-.334 2.584-.334 2.584 0 5l2 2c.29 3.698.119 6.602-.945 10.164-1.196 4.351-1.741 8.544-2.18 13.023l-.255 2.532c-.877 9.207-1.029 18.123.38 27.28l2.16.785c3.009 1.287 5.547 2.852 8.277 4.652 5.222 3.368 10.124 6.136 16.063 8 4.39 1.401 8.192 3.255 11.5 6.563.375 2.313.375 2.313 0 5-3.45 3.653-6.11 4.464-11 5-3.799.09-7.591.024-11.391-.051l-3.333-.057-6.97-.134-10.592-.178-6.793-.131-3.167-.045c-7.743-.179-15.888-.457-22.755-4.405-2.237-2.908-2.403-6.002-2.336-9.609.407-2.9 1.322-5.395 2.336-8.141 4.334-12.336 1.299-22.469-3.156-34.328-3.309-9.407-3.241-18.086-2.844-27.922h5l.688-2.687c1.496-3.777 3.318-5.618 6.313-8.312l2-2c-.362-4.412-1.054-8.674-2-13l-1.875 2C260 247 260 247 258 247l-.687 1.75c-1.661 2.847-3.628 4.371-6.312 6.25h-2l-.375 2.813C248 261 248 261 246 264a155.03 155.03 0 0 0-.937 8.125c-.906 8.673-2.581 15.408-7.02 22.992-7.331 13.234-9.457 34.082-5.5 48.629.878 4.331 1.114 8.882.457 13.254-1.894 2.505-2.95 2.983-6 4-20.488 1.867-20.488 1.867-28-4-2.567-2.628-3.85-4.335-4.184-8.035.296-5.421 2.246-9.699 4.832-14.41 3.363-6.357 4.792-10.945 4.793-18.094l.04-2.432.081-7.653c.104-10.964.328-21.568 2.438-32.375l.537-2.784c.738-3.734 1.31-5.987 3.463-9.216l-1.68-.637c-3.127-1.837-5.135-4.442-7.445-7.176-7.857-8.888-17.907-13.358-29.788-14.457-2.968-.103-5.93-.146-8.9-.168-14.966-.392-27.603-3.051-39.187-13.187-1.756-2.085-2.976-3.862-4-6.375h-2c-5.031-9.744-7.768-19.595-8.375-30.562-.535-7.518-3.412-14.77-7.289-21.195C101 166 101 166 101 164l-3.312 1.5C94 167 94 167 91 167v2c-1.625 1.028-3.305 1.969-5 2.875-10.672 6.044-20.688 13.607-29.617 22.016C55 195 55 195 53 195l-1 3h-2l-1 3h-2v2h-5c-3.263-6.526-.628-14.237 1.5-20.75C50.209 162.744 63.328 144.315 80 132h2v-2c2.407-1.679 4.808-3.23 7.313-4.75l2.033-1.266C97.111 120.433 103.035 117.2 109 114l2.821-1.519C122.696 106.65 133.358 101.122 145 97l5.313-2.167c13.605-5.596 27.568-9.977 41.783-13.742l2.552-.697 2.255-.598c2.396-.91 4.065-2.253 6.096-3.796 2.8-.428 5.515-.5 8.344-.594 2.709-.2 2.709-.2 4.648-1.902 2.603-1.949 4.416-1.932 7.633-2.066 4.186-.011 4.186-.011 7.375-2.437 2.602-.414 2.602-.414 5.625-.625l3.039-.227L242 68l1.063-5.187.598-2.918c.352-2.998-.068-4.96-.66-7.895-.238-3.789-.231-7.579-.25-11.375l-.062-3.078c-.031-5.978.375-10.295 3.313-15.547 6.03-5.32 15.145-4.107 22.688-3.812zM302 148c-2.305 5.475-2.158 10.153-2 16h10l-2.5-3.5c-2.799-4.416-2.959-7.357-2.5-12.5h-3z" fill="#1a1b19"/><path d="M268.688 18.188l2.196.054c5.05.271 8.139 1.402 12.116 4.759 1.864 2.988 2.248 5.244 2.23 8.738l-.006 2.736-.037 2.838-.002 2.803c-.025 3.869-.14 7.566-.693 11.4-.658 4.656-.599 9.227-.555 13.922l.014 2.795L284 75l2.117.184 2.758.254 2.742.246C294 76 294 76 296 77v2h3v2l2.563.313c4.983.997 10.288 2.426 13.438 6.688v2l6 2v2l3 1c4.246 6.744 5.121 11.66 4.873 19.551-.063 3.741-.008 5.246 2.127 8.449.301 2.754.509 5.426.625 8.188l.117 2.271L332 139h2v3h2c3.088 7.334 2.977 14.166.063 21.5-.97 2.198-1.988 4.351-3.062 6.5h-2l-2 5h-2l-.332 2.184c-1.445 6.093-5.03 11.318-9.605 15.504-4.971 2.13-9.044.573-14.062-.687l.413 1.794c1.406 6.482 2.023 12.773 2.274 19.393l.143 2.865c.219 5.142.102 9.883-.83 14.947h-2l-1 2-1-2-.75 3.5c-.737 3.049-1.696 5.387-3.312 8.063-2.683 4.983-2.373 10.17-2.59 15.715-.473 5.064-2.067 9.215-4.348 13.723-9.631 1.751-19.33 1.198-29 0 1.317-5.665 3.325-7.821 8-11h4c-.135-6.788-.952-12.408-3.625-18.687-2.379-5.811-2.808-9.281-1.375-15.312l1.5-7.375.781-3.586c.985-4.964 1.327-10 1.719-15.039l-.595 2.076-2.718 9.424-.936 3.266c-4.016 13.865-8.718 24.349-20.146 33.699-2.284 2.184-2.707 4.539-3.605 7.535-2.184 3.124-4.564 6.069-7 9l1 1h1c.709 12.107-2.871 21.358-8.477 31.836-2.589 5.377-2.766 10.611-3.086 16.477l-.131 2.244L227 323l-6.312.125-3.551.07C214 323 214 323 211 321c-2.457-19.283-.808-48.292 11.313-64.043 1.331-1.544 2.746-3.016 4.188-4.457 2.741-4.568 1.095-9.873-.035-14.863-2.559-14.517-.472-35.555 6.535-48.637 2.419-2.455 5.092-4.177 8-6 4.314-3.236 6.248-5.835 7.313-11.187l.363-2.543C249 167 249 167 250 164l11 2c-.636-3.084-.636-3.084-2.812-3.914l-2.187-.711c-3.93-1.305-3.93-1.305-5-2.375l-.138-5.168c-.237-10.267-3.125-17.798-9.237-26.144-2.108-3.486-2.144-5.68-1.625-9.687 1.5-2.437 1.5-2.437 3-4l-2.625-.687c-2.935-1.141-4.242-1.882-6.5-3.875-2.536-2.15-3.67-3.068-6.875-3.437l-.395 1.699c-2.091 7.946-5.257 16.106-12.613 20.5-2.973 1.195-4.925.598-7.992-.199-2.029-.939-4.039-1.926-6-3l1.355 1.031C208.29 131.591 211.632 137.86 215 146c4.113 9.505 4.113 9.505 11 17 2.741.937 5.47 1.57 8.297 2.199 4.004 1.186 7.343 3.305 9.703 6.801.461 2.395.461 2.395 0 5-3.666 4.639-7.956 8.366-13.625 10.125-5.258-1.753-8.537-5.424-11.375-10.125l-.379-3.566c-.281-3.569-.281-3.569-3-5.551l-3.184-1.758-1.734-.992L205 162c-25.049-13.469-25.049-13.469-29.445-23.957-1.001-3.686-1.467-7.308-.555-11.043l1.813-2.199c3.364-4.308 4.76-9.262 6.543-14.383 2.736-7.491 2.736-7.491 6.645-9.418 4.66-.595 7.195.314 11 3l-2.437-2.437L195 98c.108-5.39 1.456-8.603 5.086-12.422 6.57-5.417 13.777-6.014 22.031-5.914 2.835.33 4.399 1.037 6.883 2.336h4c-6.369-2.3-6.369-2.3-13-3.562L217 78l-1-2-2-1c3.199-2.843 5.387-3.385 9.625-3.562 4.186-.011 4.186-.011 7.375-2.437 2.602-.414 2.602-.414 5.625-.625l3.039-.227L242 68l1.063-5.187.598-2.918c.352-2.998-.068-4.96-.66-7.895-.238-3.789-.231-7.579-.25-11.375l-.062-3.078c-.031-5.978.375-10.295 3.313-15.547 6.03-5.32 15.145-4.107 22.688-3.812zM302 148c-2.305 5.475-2.158 10.153-2 16h10l-2.5-3.5c-2.799-4.416-2.959-7.357-2.5-12.5h-3z" fill="#181717"/><path d="M168 128l.262 1.871c1.523 9.183 4.818 16.414 12.125 22.387 4.558 3.039 9.485 5.321 14.414 7.691 4.081 1.969 8.063 4.08 12.012 6.301l3.395 1.891c5.05 3.362 6.459 7.38 8.793 12.859l2 2v4c2.652 1.075 5.284 2.095 8 3-2.716 11.383-2.716 11.383-4.625 16.688-2.309 6.787-2.438 13.402-2.262 20.508l.092 3.918.193 6.036c.51 12.69.51 12.69-3.417 17.281-2.98 2.57-2.98 2.57-5.148 2.43-3.846-1.167-5.662-3.622-8.145-6.609-4.142-4.71-7.85-8.683-13.687-11.25l-2.574-1.141c-8.216-3.05-16.074-3.26-24.753-3.508-13.526-.424-26.357-1.582-36.692-11.238-7.787-8.344-9.784-16.844-11.48-27.863-1.8-11.547-3.624-22.933-10.547-32.629C105 161 105 161 105 158c10.502-6.033 21.104-11.714 32-17l2.848-1.387 9.277-4.488 2.983-1.445C163.961 128 163.961 128 168 128z" fill="#88cd03"/><path d="M250 164l5.688.938 3.199.527 5.408 1.063c3.083.539 5.97.585 9.1.57l3.643-.01 3.775-.025 3.834-.014L294 167l.402 3.211.535 4.164.264 2.117c.462 3.876.462 3.876 1.799 7.508l1.457 8.691 1.117 5.961c1.455 7.028 1.639 13.946 1.676 21.098l.028 2.978c-.03 7.17-.525 13.582-4.34 19.835-2.683 4.983-2.373 10.17-2.59 15.715-.473 5.064-2.067 9.215-4.348 13.723-9.631 1.751-19.33 1.198-29 0 1.317-5.665 3.325-7.821 8-11h4c-.135-6.788-.952-12.408-3.625-18.687-2.379-5.811-2.808-9.281-1.375-15.312l1.5-7.375.781-3.586c.985-4.964 1.327-10 1.719-15.039l-.595 2.076-2.718 9.424-.936 3.266c-4.016 13.865-8.718 24.349-20.146 33.699-2.284 2.184-2.707 4.539-3.605 7.535-2.184 3.124-4.564 6.069-7 9l1 1h1c.709 12.107-2.871 21.358-8.477 31.836-2.589 5.377-2.766 10.611-3.086 16.477l-.131 2.244L227 323l-6.312.125-3.551.07C214 323 214 323 211 321c-2.457-19.283-.808-48.292 11.313-64.043 1.331-1.544 2.746-3.016 4.188-4.457 2.741-4.568 1.095-9.873-.035-14.863-2.559-14.517-.472-35.555 6.535-48.637 2.419-2.455 5.092-4.177 8-6 4.314-3.236 6.248-5.835 7.313-11.187l.363-2.543C249 167 249 167 250 164z" fill="#ebebeb"/><path d="M226.779 81c2.954 1.331 5.404 1.291 8.639 1.344l3.803.09 3.967.066c8.242.14 15.815.464 23.813 2.5 5.543.558 9.734-.207 15-2 7.715-1.046 12.578 1.899 19 6l1.895 1.16c4.805 3.394 6.64 8.354 8.105 13.84.382 2.877.313 5.075 0 8l-2 2c-4.323-.333-7.538-1.633-11.375-3.562-12.926-5.528-30.658-2.807-43.625 1.563-6.285 1.162-10.433.124-15.812-3.312L233 105l-5-3-.48 2.309c-2.182 9.657-4.939 18.088-13.52 23.691-3.188 1.178-4.976 1.401-8.156.156-1.997-.984-3.928-2.023-5.844-3.156l1.355 1.031C208.29 131.591 211.632 137.86 215 146c4.113 9.505 4.113 9.505 11 17 2.741.937 5.47 1.57 8.297 2.199 4.004 1.186 7.343 3.305 9.703 6.801.461 2.395.461 2.395 0 5-3.666 4.639-7.956 8.366-13.625 10.125-5.258-1.753-8.537-5.424-11.375-10.125l-.379-3.566c-.281-3.569-.281-3.569-3-5.551l-3.184-1.758-1.734-.992L205 162c-25.049-13.469-25.049-13.469-29.445-23.957-1.001-3.686-1.467-7.308-.555-11.043l1.813-2.199c3.364-4.308 4.76-9.262 6.543-14.383 2.736-7.491 2.736-7.491 6.645-9.418 4.66-.595 7.195.314 11 3l-2.437-2.437L195 98c.108-5.39 1.456-8.603 5.086-12.422 6.454-5.321 18.947-8.931 26.693-4.579z" fill="#eaeaea"/><path d="M193 89c-.698 3.17-1.518 6.103-3 9-3.437 1.75-3.437 1.75-7 3-3.563 3.628-4.452 6.445-5.312 11.375-1.234 4.209-1.986 6.118-5.574 8.711-3.244 1.494-6.474 2.817-9.824 4.045-4.176 1.585-8.222 3.463-12.289 5.306l-2.585 1.155c-6.417 2.887-12.611 6.073-18.782 9.447-3.788 2.065-7.641 3.987-11.508 5.898C103.175 153.881 89.763 161.019 77 170l-2.992 2.094C64.939 178.568 56.416 185.706 48 193c.428-17.6 11.087-32.788 23-45l2.563-2.687C80.572 138.663 87.868 133.235 96 128l2.652-1.781c7.206-4.768 14.779-8.567 22.538-12.332 2.352-1.153 4.672-2.367 6.997-3.575 4.595-2.301 9.33-4.126 14.148-5.906 3.096-1.188 6.126-2.459 9.172-3.766 6.871-2.878 13.89-5.156 20.992-7.391l3.781-1.207L186 89l2.193-.681C190 88 190 88 193 89z" fill="#87ca06"/><path d="M218 76l-1 2 2.938-.187c3.051-.018 5.216.542 8.031 1.688 5.84 2.025 11.476 1.831 17.594 1.688l3.346-.041L257 81v1c-6.115.889-12.074 1.183-18.25 1.188l-2.68.037-2.586.006-2.321.012c-2.441-.274-4.008-1.101-6.163-2.243-8.207-.956-15.836-.309-23 4-3.368 2.699-4.838 5.476-6.125 9.625-.263 3.533-.263 3.533 2.5 5.625L201 102l1 3-6-3c-3.375-.367-5.251-.569-8.008 1.523-2.603 3.235-3.696 6.506-4.992 10.414-1.732 5.192-3.497 8.775-7 13.063-1.281 4.84-.211 9.233 2 13.625 2.9 4.72 6.663 8 11 11.375l3 2.438 2 1.563-1 3c-8.017-1.115-14.847-6.948-19.75-13.187-4.273-6.195-5.454-10.301-5.25-17.812-10.687 4.054-20.86 8.736-31 14l-2.836 1.466c-12.229 6.23-12.229 6.23-24.222 12.894C107 158 107 158 105 158c1.52 3.116 3.055 6.085 4.938 9 4.669 8.255 6.082 17.75 7.46 26.999 1.903 12.708 3.897 23.221 14.485 31.572 9.936 6.71 20.923 7.376 32.582 7.716 12.276.36 22.622 1.543 33.535 7.714.875 2.688.875 2.688 1 5-2.468.925-4.244 1.315-6.727.281l-3.89-2.12c-8.069-3.932-16.366-4.533-25.196-4.599-14.966-.392-27.603-3.051-39.187-13.187-1.756-2.085-2.976-3.862-4-6.375h-2c-5.031-9.744-7.768-19.595-8.375-30.562-.535-7.518-3.412-14.77-7.289-21.195C101 166 101 166 101 164l-3.312 1.5C94 167 94 167 91 167v2c-1.625 1.028-3.305 1.969-5 2.875-10.672 6.044-20.688 13.607-29.617 22.016C55 195 55 195 53 195l-1 3h-2l-1 3h-2v2h-5c-3.263-6.526-.628-14.237 1.5-20.75C50.209 162.744 63.328 144.315 80 132h2v-2c2.407-1.679 4.808-3.23 7.313-4.75l2.033-1.266C97.111 120.433 103.035 117.2 109 114l2.821-1.519C122.696 106.65 133.358 101.122 145 97l5.313-2.167c13.605-5.596 27.568-9.977 41.783-13.742l2.552-.697 2.255-.598c2.396-.91 4.056-2.263 6.096-3.796 3.164-.547 3.164-.547 6.625-.75l3.477-.234C216 75 216 75 218 76zm-36.75 14.5l-2.65.802c-6.93 2.128-13.807 4.401-20.662 6.76l-2.806.957c-6.564 2.292-12.836 5.038-19.132 7.98l-5.312 2.375C107.371 120.024 80.967 133.422 65 154l-1.734 2.23C55.677 166.523 47.606 179.828 48 193l2.688-2.312 1.973-1.676 4.961-4.367c14.541-12.901 31.563-24.06 49.066-32.52a424 424 0 0 0 15.625-8.062c5.453-2.938 10.969-5.713 16.563-8.375l2.339-1.116c4.768-2.243 9.579-4.333 14.45-6.341l3.434-1.438 6.714-2.723c6.363-2.451 6.363-2.451 10.317-7.647L177 113l.809-2.258.629-1.867c1.334-3.548 2.803-6.194 5.563-8.875l3.063-.687c3.108-.998 3.108-.998 3.988-3.652.752-2.541 1.404-5.067 1.949-7.66-4.147 0-7.817 1.304-11.75 2.5z" fill="#161914"/><path d="M268.688 18.188l2.196.054c5.05.271 8.139 1.402 12.116 4.759 1.864 2.988 2.248 5.244 2.23 8.738l-.006 2.736-.037 2.838-.002 2.803c-.025 3.869-.14 7.566-.693 11.4-.658 4.656-.599 9.227-.555 13.922l.014 2.795L284 75l2.117.184 2.758.254 2.742.246C294 76 294 76 296 77v2h3v2l2.563.313c3.898.78 6.872 1.939 10.438 3.688l1 2h-2v3c-2.654 1.269-4.113 1.928-7 2-3.612-1.604-6.736-3.791-10-6-3.944-2.275-7.517-2.454-12-2l-2.937 1c-6.365 2.078-12.41 1.099-18.785-.492-3.123-.696-6.246-.987-9.43-1.262C249 83 249 83 247 82c-2.188.006-4.376.054-6.562.125-5.365.049-9.506-.415-14.465-2.398-2.025-.746-3.833-1.056-5.973-1.289L217 78l-1-2-2-1c3.199-2.843 5.387-3.385 9.625-3.562 4.186-.011 4.186-.011 7.375-2.437 2.602-.414 2.602-.414 5.625-.625l3.039-.227L242 68l1.063-5.187.598-2.918c.352-2.998-.068-4.96-.66-7.895-.238-3.789-.231-7.579-.25-11.375l-.062-3.078c-.031-5.978.375-10.295 3.313-15.547 6.03-5.32 15.145-4.107 22.688-3.812z" fill="#1a1a1a"/><path d="M304 117c.939 7.034-.244 12.143-3.375 18.438-3.977 8.068-4.78 15.754-5.336 24.652C295 164 295 164 294 165c-4.097.286-8.207.232-12.312.25l-3.439.063c-9.389.043-19.421-.572-27.248-6.312-.389-2.643-.503-4.804-.437-7.437-.156-9.399-3.397-16.309-8.937-23.875-2.099-3.472-2.152-5.7-1.625-9.687 1.191-1.707 1.191-1.707 3-3 2.461-.187 2.461-.187 5.375 0 4.549.13 8.246-.278 12.625-1.5 13.67-3.454 30.374-3.222 43 3.5z" fill="#ebebeb"/><path d="M256 274l1.941.492c4.021.668 7.928.656 11.996.633l2.527-.006c7.211-.05 14.354-.463 21.536-1.119l-.656 2.996c-2.048 10.36-2.745 20.659-2.875 31.197l-.092 4.483c-.054 2.129-.066 4.254-.067 6.383l-.037 3.76c.445 3.447.445 3.447 3.634 5.536L297 330l2.203 1.273 2.047 1.102c3.367 1.831 6.624 3.782 9.875 5.813 3.967 2.405 7.378 3.754 11.875 4.813 1.676.642 3.348 1.299 5 2-.312 1.938-.312 1.938-1 4-4.025 1.342-7.723 1.184-11.937 1.188l-2.4.037c-4.588.011-8.871-.376-13.385-1.213-8.142-1.47-16.306-1.368-24.559-1.402l-3.625-.07-3.26-.025c-3.5-.635-4.685-1.729-6.834-4.514-.744-4.09-.132-5.777 2-9.375 4.41-8.253 2.644-19.301.25-27.937-1.659-5.177-3.537-10.27-5.434-15.363-1.917-5.457-1.915-10.616-1.816-16.324z" fill="#87ca06"/><path d="M227 106c3.946.559 6.443 1.709 9.688 4 3.061 2.16 3.061 2.16 6.313 4l-1 1.563c-1.435 3.499-1.496 5.659-1 9.438 1.326 2.355 2.84 4.502 4.402 6.707 6.032 8.658 6.346 17.05 6.598 27.293l10 4-1 3c-6.611-.49-11.95-2.334-18-5v6c-4.842 1.614-7.52.122-12-2l-3-.625c-8.857-4.06-14.006-16.474-17.5-25.062-2.676-5.91-6.739-10.918-11.5-15.312 4.752 1.848 4.752 1.848 6.938 3.188 3.092 1.218 4.899.762 8.063-.187 7.672-5.064 10.013-12.636 13-21z" fill="#0a0c09"/><path d="M218 76l-1 2 2.938-.187c3.051-.018 5.216.542 8.031 1.688 5.84 2.025 11.476 1.831 17.594 1.688l3.346-.041L257 81v1c-6.115.889-12.074 1.183-18.25 1.188l-2.68.037-2.586.006-2.321.012c-2.441-.274-4.008-1.101-6.163-2.243-8.207-.956-15.836-.309-23 4-3.368 2.699-4.838 5.476-6.125 9.625-.263 3.533-.263 3.533 2.5 5.625L201 102l1 3-6-3c-1.373-.069-2.75-.085-4.125-.062L188 102v-3h2l-.125-2.75c.123-3.196.625-4.534 2.125-7.25-9.284 1.905-18.114 4.533-27.048 7.651l-6.245 2.146c-7.769 2.672-15.285 5.666-22.707 9.203l-5.312 2.375c-19.517 8.914-39.324 19.29-54.98 34.191C74 146 74 146 72 146l-.777 1.766c-1.333 2.436-2.834 4.014-4.785 5.984C57.477 163.673 49 178.343 49 192l1.617-1.687C56.076 184.721 61.799 179.751 68 175l2 1v7c-1.758 1.746-1.758 1.746-4.125 3.438-2.859 2.089-5.645 4.17-8.312 6.5C55 195 55 195 53 195l-1 3h-2l-1 3h-2v2h-5c-3.263-6.526-.628-14.237 1.5-20.75C50.209 162.744 63.328 144.315 80 132h2v-2c2.407-1.679 4.808-3.23 7.313-4.75l2.033-1.266C97.111 120.433 103.035 117.2 109 114l2.821-1.519C122.696 106.65 133.358 101.122 145 97l5.313-2.167c13.605-5.596 27.568-9.977 41.783-13.742l2.552-.697 2.255-.598c2.396-.91 4.056-2.263 6.096-3.796 3.164-.547 3.164-.547 6.625-.75l3.477-.234C216 75 216 75 218 76z" fill="#21241d"/><path d="M168 128l2 11-4.125 3.125C155.026 150.82 145.466 160.993 137 172l-2.301 2.926C128.618 182.806 123.37 191.049 119 200l-2-1c-.547-2.778-.988-5.511-1.375-8.312-1.559-10.155-3.603-19.566-9.672-28.066C105 161 105 161 105 158c10.502-6.033 21.104-11.714 32-17l2.848-1.387 9.277-4.488 2.983-1.445C163.961 128 163.961 128 168 128z" fill="#537a03"/><path d="M307 92c6.293.617 9.985 1.761 14.25 6.5 2.591 3.702 2.887 6.466 2.875 10.875l.008 2.836C324 115 324 115 323.305 117.602c-.409 3.218.76 3.888 2.695 6.398.617 3.129.617 3.129.875 6.563l.305 3.441C327 137 327 137 325.613 138.797L324 140l-1.687 1.688L321 143l3.75-.75c2.109-.422 2.109-.422 4.25-.25 2.775 2.031 3.847 3.279 4.566 6.664-.014 10.494-3.88 16.807-9.566 25.336l-2.437 5.063c-3.752 7.482-3.752 7.482-7.562 9.938-4.457.327-8.395-.017-12.246-2.375-2.282-2.114-2.682-3.916-2.992-6.965l-.074-2.598-.113-2.59c.582-3.38 1.674-4.464 4.426-6.473 3.016-.609 3.016-.609 6.25-.75l3.266-.172L315 167c-1.998-4.905-1.998-4.905-4.687-9.437-1.882-3.675-1.515-6.454-1.312-10.562v-2c-2.463-1.645-2.463-1.645-5-3 .419-3.35 1.39-5.833 3-8.75 2.281-4.331 2.776-8.408 3-13.25l5-2c.827-10.696-1.472-17.577-8-26z" fill="#e9e9e9"/><path d="M224 198h2c-.469 3.205-1.062 6.207-2 9.313-1.812 6.682-2.061 12.998-1.887 19.883l.092 3.918.193 6.036c.51 12.69.51 12.69-3.417 17.281-2.98 2.57-2.98 2.57-5.148 2.43-3.846-1.167-5.662-3.622-8.145-6.609-4.142-4.71-7.85-8.683-13.687-11.25l-2.574-1.141c-10.738-3.987-22.104-3.691-33.426-3.859v-1l3.043-.043c9.531-.275 17.245-1.794 25.957-5.957l2.758-1.312C201.456 218.659 213.169 208.831 224 198z" fill="#537b04"/><path d="M262.875 23.5l2.027-.047c5.473.042 9.416 1.806 14.098 4.547.945 29.974.945 29.974-5.322 37.611-2.069 1.713-3.037 1.741-5.689 1.682l-2.295-.029-2.381-.076-2.416-.041L255 67l-2.437-4.187-1.371-2.355c-3.014-6.216-2.517-13.26-2.629-20.02l-.139-3.443c-.112-8.249-.112-8.249 3.111-11.74 3.883-1.405 7.26-1.847 11.34-1.754z" fill="#e9e9e9"/><path d="M248 64c2.207 1.063 4.199 2.139 6.211 3.547C259.418 70.26 265.284 69.637 271 69c2.557-1.06 3.907-2.14 6-4h2l2 13 2-7 1 4 2.117.184 2.758.254 2.742.246C294 76 294 76 296 77v2h3v2l2.563.313c3.898.78 6.872 1.939 10.438 3.688l1 2h-2v3c-2.654 1.269-4.113 1.928-7 2-3.612-1.604-6.736-3.791-10-6-3.944-2.275-7.517-2.454-12-2l-2.937 1c-6.365 2.078-12.41 1.099-18.785-.492-3.123-.696-6.246-.987-9.43-1.262C249 83 249 83 247 82l-6.25.188c-7.875.09-14.319-1.658-21.75-4.187l1-3c6.4-.369 6.4-.369 9.438 1.5L231 78l-1-3c1.438-1.562 1.438-1.562 4-3 5.862-.238 10.806 1.458 16 4l-1-1.5c-1.436-3.591-1.129-6.645-1-10.5z" fill="#4c6729"/><path d="M190 99h-2l-.293 1.938c-.964 4.177-2.474 8.07-4.02 12.063l-.896 2.406c-1.751 4.538-3.688 7.806-6.791 11.594-1.281 4.84-.211 9.233 2 13.625 2.9 4.72 6.663 8 11 11.375l3 2.438 2 1.563-1 3c-8.017-1.115-14.847-6.948-19.75-13.187-4.273-6.195-5.454-10.301-5.25-17.812-10.687 4.054-20.859 8.736-31 14l-2.869 1.482-15.174 7.881-2.532 1.322c-1.733.94-3.434 1.941-5.11 2.98C109 157 109 157 107 157v-6c8.461-4.631 16.986-9.016 25.739-13.071 5.528-2.564 10.952-5.299 16.363-8.105 3.031-1.493 6.118-2.663 9.297-3.805 10.167-3.252 10.167-3.252 17.621-10.238.974-3.369.974-3.369 1.438-6.742.84-4.704 3.151-6.795 6.543-10.039 2.491-1.245 3.411-.777 6 0z" fill="#0a1105"/><path d="M256 274l1.941.492c4.021.668 7.928.656 11.996.633l2.527-.006c7.211-.05 14.354-.463 21.536-1.119l-.656 2.961C290.06 293.512 290.717 310.211 291 327h-2v-31l-3 1c-1.992.083-3.987.107-5.98.098l-3.525-.01-3.682-.025-3.717-.014L260 297l-1.457-4.309-.82-2.424c-1.742-5.46-1.821-10.599-1.723-16.268z" fill="#619306"/><path d="M311 87l4 1v2l6 2v2l3 1c4.246 6.744 5.121 11.66 4.873 19.551-.063 3.741-.008 5.246 2.127 8.449.301 2.754.509 5.426.625 8.188l.117 2.271L332 139h2v3h2c3.088 7.334 2.977 14.166.063 21.5-.97 2.198-1.988 4.351-3.062 6.5h-2l-2 5h-2l-.332 2.184c-1.445 6.093-5.03 11.318-9.605 15.504-3.857 1.653-6.025 1.285-10.062.313l-2.437-.562L303 192l-1 3-1-5 7 1v-2l3.125-.5c5.087-1.477 7.254-5.118 9.875-9.5 1.341-2.533 2.607-5.088 3.84-7.676 1.472-2.95 3.319-5.594 5.16-8.324 2.096-4.192 2.212-7.658 2.125-12.312l-.055-3.801L332 144c-6.525-1.004-6.525-1.004-13 0a141.4 141.4 0 0 1 5-5h2c.285-6.837.007-13.092-3.187-19.312C322 118 322 118 323 115c.599-7.334.306-12.792-4.375-18.75C315.158 93.583 312.349 93 308 93l1.875 2.188c1.962 2.596 3.078 4.759 4.125 7.813l-2-1-2 2-2-4.75-1.125-2.672C306 94 306 94 306 90h5v-3z" fill="#1d1d1d"/><path d="M214.137 324.609l3.551.141 3.574.109L224 325c1.746 3.216 2.204 5.32 2 9h-2l.875 2.852 1.125 3.773 1.125 3.727c.812 3.387 1.045 6.187.875 9.648-5.533 3.502-12.719 2.57-19 2-3.208-1.106-5.571-2.571-8-5-.588-7.055-.588-7.055 1.75-10.812 1.993-1.938 3.952-3.628 6.25-5.187l-1-1c-.309-2.863-.219-4.57 1.098-7.152C211 325 211 325 214.137 324.609z" fill="#e5e5e5"/><path d="M79 133l1 3-2 1.75c-2.443 2.247-2.443 2.247-2 6.25l-1.875.75c-2.238 1.055-2.238 1.055-3.035 3.094-1.241 2.455-2.719 3.954-4.652 5.906C57.477 163.673 49 178.343 49 192l1.617-1.687C56.076 184.721 61.799 179.751 68 175l2 1v7c-1.758 1.746-1.758 1.746-4.125 3.438-2.859 2.089-5.645 4.17-8.312 6.5C55 195 55 195 53 195l-1 3h-2l-1 3h-2v2h-5c-3.263-6.526-.628-14.237 1.5-20.75C49.985 163.397 62.644 144.725 79 133z" fill="#1d211a"/><path d="M294 289l.076 2.352.362 10.648.119 3.699c.216 6.16.536 12.202 1.443 18.301l2.16.785c3.009 1.287 5.547 2.852 8.277 4.652 5.222 3.368 10.124 6.136 16.063 8 4.39 1.401 8.192 3.255 11.5 6.563.375 2.313.375 2.313 0 5-4.151 4.395-7.803 4.853-13.629 5.121-5.117.113-9.842-.174-14.879-1.094-6.908-1.204-13.743-1.47-20.742-1.652l-3.738-.117L272 351l1-3 13.188-.062 3.775-.025 3.643-.01 3.348-.016c2.815.105 5.299.535 8.046 1.114a81.72 81.72 0 0 0 4.539.133l2.508.004 2.578-.012 2.602.012 2.5-.004 2.268-.003c2.214-.057 2.214-.057 5.005-1.129l1-3-2.098-.34c-8.976-1.809-15.618-5.74-23.206-10.597-2.94-1.842-5.997-3.463-9.06-5.09C292 328 292 328 290 326c-.212-2.462-.304-4.809-.301-7.273l-.013-2.182-.002-4.575-.046-6.985-.002-4.445-.028-2.106c.028-2.935.152-9.433 4.391-9.433z" fill="#13180d"/><path d="M229 106c3.196 1.538 6.216 3.289 9.25 5.125l2.703 1.633L243 114l-.969 1.801c-1.578 3.365-1.516 5.501-1.031 9.199 1.325 2.354 2.84 4.502 4.398 6.707 6.205 8.884 6.064 16.817 5.602 27.293-3.197-.779-5.594-1.716-8-4-1.036-4.342-1.103-8.55-1-13l5-2v-2l-1.687.211c-5.888.418-9.025-.675-13.512-4.496L230 132l-1.645-1.559c-2.195-2.328-3.372-3.743-3.293-7.004a81.43 81.43 0 0 1 1.938-4.625c1.483-4.172 1.676-8.417 2-12.812z" fill="#8e8e8e"/><path d="M256 282h1l.625 3.438c1.243 5.687 3.248 11.08 5.254 16.533 3.28 8.987 5.419 20.314 2.226 29.643-.998 1.816-2.049 3.604-3.105 5.387-.566 4.074-.566 4.074 1.126 7.636 2.733 1.989 4.938 1.8 8.292 1.876l3.799.107 3.971.068 4.006.104L293 347v1l-20 1-1 2 2.383-.016 10.742-.047 3.75-.025 3.633-.01 3.333-.016c3.136.113 6.08.527 9.16 1.114v1l-13.55.11-4.597.041c-21.131.234-21.131.234-28.854-4.151-2.237-2.908-2.403-6.002-2.336-9.609.407-2.9 1.322-5.395 2.336-8.141 3.959-11.269 1.828-20.258-2-31.25l-2.25-7.062-1.016-3.16C252 287 252 287 252 283h2l1 2 1-3z" fill="#23291f"/><path d="M274 194c.966 2.897 1.105 4.645 1.063 7.648l-.026 2.779-.037 2.948c-.061 10.66-.069 21.082 2.527 31.488.68 3.073.956 6.157 1.227 9.289.156 1.939.156 1.939 1.246 3.848.567 5.787-.815 9.251-4 13.938l-1.156 1.783L272 272h11v1c-7.41.115-14.642-.088-22-1 1.317-5.665 3.325-7.821 8-11h4c-.135-6.788-.952-12.408-3.625-18.687-2.378-5.808-2.812-9.283-1.375-15.312l1.5-7.25.809-3.883c.838-4.689 1.183-9.309 1.383-14.062.321-2.917 1.096-5.146 2.309-7.805z" fill="#8b8a8a"/><path d="M218 76l-1 2 2.938-.187c3.051-.018 5.216.542 8.031 1.688 5.84 2.025 11.476 1.831 17.594 1.688l3.346-.041L257 81v1c-6.115.889-12.074 1.183-18.25 1.188l-2.68.037-2.586.006-2.321.012c-2.441-.274-4.008-1.101-6.163-2.243-8.207-.956-15.836-.309-23 4-3.368 2.699-4.838 5.476-6.125 9.625-.263 3.533-.263 3.533 2.5 5.625L201 102l1 3-6-3c-1.373-.069-2.75-.085-4.125-.062L188 102v-3h2l-.125-2.75c.123-3.196.625-4.534 2.125-7.25-9.021 1.932-9.021 1.932-17.812 4.688-4.205 1.495-7.746 1.555-12.187 1.313 2.625-3.875 2.625-3.875 6-5l1-2c2.145-.769 4.327-1.437 6.52-2.059l1.985-.575 8.431-2.405 6.146-1.77 3.726-1.056c2.978-1.059 4.752-2.204 7.192-4.135 3.164-.547 3.164-.547 6.625-.75l3.477-.234C216 75 216 75 218 76z" fill="#161a12"/><path d="M219 131l3.402 3.426c3.665 3.611 7.982 7.267 12.598 9.574 2.261 6.128 2.242 12.559 2 19-3.852.06-7.507.073-10.723-2.238-7.045-7.871-11.03-17.57-13.277-27.762 3-2 3-2 6-2z" fill="#86c709"/><path d="M107 152v6h-2l1.125 3.125c.95 4.209.578 5.997-1.125 9.875-4-4.75-4-4.75-4-7l-3.312 1.5C94 167 94 167 91 167v2l-5.5 3.313c-4.916 2.784-9.73 5.661-14.5 8.688l-3-4c3.569-3.749 7.326-6.893 11.563-9.875l1.844-1.307C101.162 152 101.162 152 107 152z" fill="#141810"/><path d="M301 214h1l1 17h2c-1.541 9.174-1.541 9.174-3.562 12.813-1.959 4.345-1.947 8.438-2.129 13.164-.298 2.922-.9 4.507-2.309 7.023-.334 2.584-.334 2.584 0 5l2 2c.289 3.682.129 6.574-.945 10.117-1.353 4.537-1.744 9.121-2.18 13.82l-.262 2.65L295 304h-1l-1-13-2 1 2-16 2 1 2-1v-4l-3-1-1-3-3 3 1.438-3.562c1.488-4.348 1.784-8.292 1.938-12.875.279-6.049 1.311-10.166 4.469-15.316 2.671-5.189 2.423-11.391 2.719-17.121l.131-2.375L301 214z" fill="#232323"/><path d="M334 143c3.231 3.029 4.336 5.356 4.5 9.688-.239 6.365-2.691 11.694-5.5 17.313h-2l-2 5h-2l-.332 2.184c-1.445 6.093-5.03 11.318-9.605 15.504-3.857 1.653-6.025 1.285-10.062.313l-2.437-.562L303 192l-1 3-1-5 7 1v-2l3.125-.5c5.087-1.477 7.254-5.118 9.875-9.5 1.341-2.533 2.607-5.088 3.84-7.676 1.472-2.95 3.319-5.594 5.16-8.324 1.885-3.934 2.33-7.349 2.563-11.687.339-6.116.339-6.116 1.438-8.312z" fill="#212121"/><path d="M256 274l1.941.492c4.021.668 7.928.656 11.996.633l2.527-.006c7.211-.05 14.354-.463 21.536-1.119l-2 7c-7.816 1.712-15.2 2.258-23.187 2.125l-3.174-.027L258 283v-2h-2v-7z" fill="#81ba14"/><path d="M248 64l2.063 2.25c5.038 4.912 8.886 6.993 15.938 7.125 4.666-.152 8.622-.783 13-2.375.313 3.313.313 3.313 0 7-2.717 2.717-5.348 3.221-9.062 3.438-7.266-.268-14.228-2.562-20.187-6.687-2.442-3.837-2.13-6.263-1.75-10.75z" fill="#e5e6e5"/><path d="M243 73l5.16 2.945c3.377 1.936 7.126 2.943 10.84 4.055v1c-14.274 1.464-26.385 1.635-40-3l1-3c6.4-.369 6.4-.369 9.438 1.5L231 78l-1-3c3.797-4.127 7.99-3.272 13-2z" fill="#7eaf1d"/><path d="M199 124c4.752 1.848 4.752 1.848 6.938 3.188 3.787 1.492 7.344.052 11.063-1.187l-1 3 3 2-5 2c1.792 8.126 4.602 14.936 9 22l1.184 1.953c2.414 3.442 4.678 4.514 8.629 5.422 1.392.232 2.787.448 4.188.625l-1 3c-5.484-.441-9.848-1.149-13.687-5.312-4.974-6.444-8.906-13.93-11.875-21.5-2.642-5.859-6.724-10.836-11.437-15.187z" fill="#181a16"/><path d="M256 281h2v2l10.813-.437 3.045-.119c6.739-.282 13.432-.768 20.143-1.443v7l-1-2-3.156.992c-6.053 1.513-12.145 1.221-18.344 1.133l-3.648-.027L257 288l-1-7z" fill="#5f9503"/><path d="M273 348l13.188-.062 3.775-.025 3.643-.01 3.348-.016c2.817.105 5.294.551 8.046 1.114l5.52.098 3.096-.01 3.197-.025 3.256-.014L328 349v3c-3.668 1.678-6.536 2.272-10.562 2.25l-2.816.016c-3.135-.23-6.047-.679-9.133-1.242-6.906-1.2-13.741-1.466-20.738-1.648l-3.738-.117L272 351l1-3z" fill="#16220a"/><path d="M257 334h1l1 9 2-3 .875 2.438c.858 2.695.858 2.695 3.125 3.563l6.32.316 3.809.127 3.996.119 4.02.131L293 347v1l-20 1-1 2 2.383-.016 10.742-.047 3.75-.025 3.633-.01 3.333-.016c3.136.113 6.08.527 9.16 1.114v1l-13.55.11-4.597.041c-21.131.234-21.131.234-28.854-4.151-2.786-3.622-2.208-7.64-2-12l1-3z" fill="#3c4235"/><path d="M291 286v5c-5.714 2.857-13.456 2.128-19.75 2.188l-2.221.039c-4.129.007-7.318-.379-11.029-2.227l1-4 2.108.016 9.517.047 3.316.025 3.223.01 2.952.016C283.79 286.969 287.34 286 291 286z" fill="#85c20c"/><path d="M193 156c4.525.581 8.009 2.462 11.875 4.75l1.872 1.101L212 165l2.434 1.395c1.879 1.168 1.879 1.168 4.566 3.605.688 3.5.688 3.5 1 7 1.924 2.887 1.924 2.887 4 5h-2v5l-.75-1.687c-1.208-2.419-1.208-2.419-3.187-4.625C216 178 216 178 214.793 174.598c-1.73-4.15-4.642-5.872-8.543-7.848l-1.805-.984c-4.048-2.173-8.204-4.004-12.445-5.766l1-4z" fill="#12180d"/><path d="M311 87l4 1v2l6 2v2l3 1c3.388 5.382 5.138 9.233 5.063 15.688l-.027 3.012L329 116h-1l-1-13h-2v9h-1l-.262-2.195c-.938-6.452-1.852-10.373-6.738-14.805-3.407-1.828-5.045-2-9-2l1.875 2.188c1.962 2.596 3.078 4.759 4.125 7.813l-2-1-2 2-2-4.75-1.125-2.672C306 94 306 94 306 90h5v-3z" fill="#2f2f2f"/><path d="M243 161c2.929.628 5.361 1.586 8 3l-.937 2.563c-1.183 3.379-1.183 3.379-1.324 6.816-.899 4.41-2.37 5.94-5.613 8.996l-2.68 2.586C238 187 238 187 235 188c-2.009-.276-4.012-.602-6-1v-1l2.5-.562c4.605-1.891 8.288-4.613 11.5-8.437.773-2.631.773-2.631 1-5l-4-2v-3h3v-6z" fill="#1e1e1e"/><path d="M264 312l2 1c.729 16.694.729 16.694-4 24a111.53 111.53 0 0 0-1.75 4l-1.25 3h-1l-.125-6.687-.07-3.762c.19-3.445.845-5.436 2.195-8.551.574-3.143 1.005-6.288 1.438-9.453L262 313l2-1z" fill="#11160d"/><path d="M263 332l1 3 10 2 1 10c-9.216.485-9.216.485-12.625-1.625-1.78-3.075-1.805-4.864-1.375-8.375 1-2.875 1-2.875 2-5z" fill="#5d9003"/><path d="M288 275h4l-1 5-3.027.184-3.91.254-3.902.246c-3.02-.034-3.02-.034-4.16 1.316l-6.562.063-3.629-.027L263 282l-1-5h26v-2z" fill="#87cc04"/><path d="M292 264h4l.938 2.938c.758 2.903.758 2.903 2.063 4.063.219 3.656.12 6.602-.941 10.121-1.358 4.536-1.748 9.117-2.184 13.816l-.262 2.65L295 304h-1l-1-13-2 1 2-16 2 1 2-1v-4l-3-1-1-3-3 3 2-7z" fill="#282d22"/><path d="M169 90l-6 4 5 1c-3.347 2.231-6.716 3.385-10.5 4.625l-2.051.695c-2.935.973-5.336 1.68-8.449 1.68l-1-2c-2.527-.656-2.527-.656-5-1 3.663-1.929 7.474-3.463 11.313-5l1.936-.789C165.995 88.498 165.995 88.498 169 90z" fill="#151a10"/><path d="M249 64l2.313 1.938C257.029 70.324 264.089 69.611 271 69c2.568-1.052 3.902-2.135 6-4h2l1 9-1-3-2.75 1.5c-5.268 2.223-10.64 2.311-16.25 1.5-4.324-1.803-7.902-4.487-11-8v-2z" fill="#8c8b8c"/><path d="M285.75 76.75c3.898.063 6.149.752 9.25 3.25l4 5c-3 0-3 0-6.125-1.562-4.913-2.222-9.738-1.308-14.805.098-2.539.57-4.906.634-7.508.652l-2.809.043c-2.932-.245-5.093-1.008-7.754-2.23 3.066-.96 5.119-.926 8.25-.312 5.145.69 8.496-.888 12.75-3.687 1-1 1-1 4.75-1.25z" fill="#83b720"/><path d="M324 180l1 2c-6.353 10.413-6.353 10.413-11 12-3.786-.266-7.35-.978-11-2l-1 3-1-5 7 1v-2l3.188-.625c3.109-.859 4.542-1.886 6.5-4.437C320 181 320 181 322.313 180.125L324 180z" fill="#353535"/><path d="M293 267l1 4 4 1-1 5-3 1v-4l-2.1.494c-3.159.551-6.088.619-9.294.604l-3.643-.01-3.775-.025-3.834-.014L262 275c2.357-2.357 2.901-2.271 6.105-2.379l2.482-.104 2.6-.08c10.184.36 10.184.36 18.75-3.5L293 267z" fill="#050904"/><path d="M243 73l3 2v5h-15l-1-5c3.745-4.071 8.035-3.216 13-2z" fill="#86c40d"/><path d="M94 126l-2 3-.742 1.891c-1.825 3.061-4.53 4.828-7.383 6.859l-1.707 1.246L78 142l-3-2 1.938-1.75c2.045-2.231 2.645-3.324 3.063-6.25h2v-2c1.609-1.324 1.609-1.324 3.75-2.687l2.109-1.387c2.532-1.095 3.602-.869 6.141.074z" fill="#181c15"/><path d="M283 71l1 4 2.117.184 2.758.254 2.742.246C294 76 294 76 296 77v2h3v2l6 1 1 3h4v2l-3.375-.062c-3.457-.201-3.457-.201-5.625 1.063-2.038-1.931-3.472-3.701-5.062-6.062-3.32-4.13-7.925-4.373-12.937-4.937v-6z" fill="#6f873b"/><path d="M233.602 68.805l3.023.07 3.039.055L242 69c-2.385 1.59-4.63 2.867-7.187 4.125l-2.168 1.07L231 75v3l-1.562-1c-3.218-1.32-5.995-1.132-9.437-1l-1 2h-2l-1-2-2-1c3.199-2.843 5.387-3.385 9.625-3.562 4.321-.191 6.126-2.344 9.977-2.633z" fill="#363f2c"/><path d="M273 348h23v2l3.125-.125c3.743.121 6.412.774 9.875 2.125-3.627 1.256-6.266.627-10 0a205.91 205.91 0 0 0-6.492-.316l-3.633-.127-3.75-.119-3.82-.131L272 351l1-3z" fill="#030503"/><path d="M261 164l12.188.438 3.486.119 3.369.127 3.094.111c2.701.194 5.224.61 7.863 1.205-2.506 2.506-3.336 2.257-6.797 2.266l-2.906.008-3.047-.023-3 .023c-5.14-.014-9.445-.214-14.25-2.273v-2z" fill="#2e2e2e"/><path d="M182 154c32.123 14.606 32.123 14.606 36.266 24.898L219 181l1 2c-2.641-1.009-3.785-1.606-5.16-4.129l-.902-2.434c-.842-2.406-.842-2.406-1.937-4.437l-3-1v-2l-9-3v-2l-2.145-.34c-3.107-.718-5.67-1.847-8.543-3.223-3.514-1.83-3.514-1.83-7.312-2.437v-4z" fill="#81b41b"/><path d="M334 143c2.415 2.264 3.867 4.054 4.336 7.383.069 4.595-.129 8.479-2.336 12.617l-1-2-4 1 .469-1.586c.906-4.118.986-8.316 1.25-12.516C333 145 333 145 334 143z" fill="#2f2f2f"/><path d="M250 74l1 2c2.208.878 2.208.878 4.813 1.563l2.645.754L261 79l2.043.578c2.192.473 4.215.59 6.457.609l2.281.043c2.511-.261 4.083-.898 6.219-2.23 1.268-2.034 1.268-2.034 2-4v6c-6.45 3.664-11.79 2.983-19 2l4 1v2l-16-2v-1l8-1-9-4 2-1v-2z" fill="#526934"/><path d="M222 182c2.412.416 3.692.664 5.375 2.5 2.318 2.139 4.561 2.16 7.625 2.5l-4 11-2-2-2 1 2-7-2.375-.375C224 189 224 189 222 187v-5z" fill="#101807"/><path d="M216 148h3c1.754 2.336 1.754 2.336 3.563 5.375 2.786 5.279 2.786 5.279 7.602 8.258l2.461.492 2.477.508L237 163l-1 3c-5.858-.471-9.955-1.275-13.937-5.812C216 152.295 216 152.295 216 148z" fill="#17240e"/><path d="M258 299h4c3.812 9.692 3.812 9.692 2 15l-3 2c-2.293-5.897-3.345-10.666-3-17z" fill="#1c2019"/><path d="M179 88l2 2h-3l-1 3c-5.137 1.992-9.525 2.192-15 2 2.176-3.944 4.843-5.086 8.934-6.465 2.792-.723 5.206-.876 8.066-.535z" fill="#080c04"/><path d="M257 334h1l1 9 2-3 .875 2.438c.858 2.695.858 2.695 3.125 3.563l.375 1.938c.434 2.261.434 2.261 2.688 3.313L270 352c-9.146-.915-9.146-.915-12-3-2.786-3.622-2.208-7.64-2-12l1-3z" fill="#2d2e2e"/><path d="M289 296v29h-1v-27h-24v7c-1.419-2.649-2.319-5.08-3-8l12.313-.5 3.537-.145 3.389-.137 3.126-.127L289 296z" fill="#86c512"/><path d="M325 339c7.018 2.028 7.018 2.028 9 5 .5 2.438.5 2.438 0 5-2.312 2.375-2.312 2.375-5 4l-3-1 2-7-2-1h2v-3l-3-1v-1z" fill="#2f302c"/><path d="M317 342c4.449-.393 7.142.847 11 3-.312 1.938-.312 1.938-1 4-3.473 1.158-6.361 1.069-10 1v-8z" fill="#608d08"/><path d="M272 199h1c-.518 8.444-1.456 16.681-3 25l-2-4-2 1c.685-4.995 2.02-9.597 3.563-14.375l.709-2.23L272 199z" fill="#1f1f1f"/><path d="M193 156c4.143.598 7.182 2.007 10.813 4.063l2.957 1.66L209 163l-2 1-1 3-14-7 1-4z" fill="#141d0b"/><path d="M148 158c.809 1.684.809 1.684 1 4-2.09 2.473-2.09 2.473-4.937 5.063L139 172v3c-3.333 3-3.333 3-6 3v2h-2c1.575-3.578 3.757-6.315 6.25-9.312l2.418-2.914L148 158z" fill="#83c00c"/><path d="M252 62l1.063 1.961c1.853 2.36 1.853 2.36 5.188 2.578l3.75.086c6.71.182 6.71.182 10 2.375-1.916 1.916-5.202 1.218-7.75 1.25l-3.734.078C256.788 69.98 254.949 69.25 252 67l-1-2 1-3z" fill="#202020"/><path d="M322 94c3.856 3.45 5.96 5.896 7 11 .147 3.674.118 7.326 0 11h-1l-1-13h-2v9h-1l-.402-2.266-.535-2.984-.527-2.953c-.474-2.711-.474-2.711-1.164-4.969C321 97 321 97 322 94z" fill="#4b4b4b"/><path d="M129 223h5l1 4 3.813-.187c3.958-.007 3.958-.007 5.813 1.563L146 230l6 2c-5.068 1.682-9.213-.042-14-2-3.161-1.793-6.169-3.716-9-6v-1z" fill="#77a71f"/><path d="M243 161c3.075.659 5.077 1.539 8 3l-3 9c-2.5-2.062-2.5-2.062-5-5-.312-3.812-.312-3.812 0-7z" fill="#858585"/><path d="M301 214h1l1 17h2l-.875 4.875-.492 2.742C303 241 303 241 301 243v-5l-2 1 2-25z" fill="#3e3e3e"/><path d="M141 99h5l1 4c-4.622 2.219-7.768 3.383-13 3 .688-1.937.688-1.937 2-4 2.625-.75 2.625-.75 5-1v-2z" fill="#080b04"/><path d="M307 133c3.04 4.559 5 8.472 5 14-2.834-1.417-5.375-3.231-8-5 .557-3.344 1.352-6.033 3-9z" fill="#888"/><path d="M244 67h2v4l4 2v3c-4.609-.72-8.672-2.313-13-4 2.36-2.36 3.779-2.491 7-3v-2z" fill="#0a1007"/><path d="M264 289h17c-3 3-3 3-6.137 3.293l-3.551-.105-3.574-.082L265 292l-1-3z" fill="#8aca04"/><path d="M218 170h1l.25 3.188c.803 4.083 1.943 5.825 4.75 8.813h-2v5l-.75-1.687c-1.206-2.429-1.206-2.429-3.25-4.625-2.417-3.248-3.079-5.775-4-9.687l3 1 1-2z" fill="#253218"/><path d="M283 71l1 4 2.117.184 2.758.254 2.742.246C294 76 294 76 296 77v2h3l-2 4-1.375-1.875C291.815 78.04 287.766 77.691 283 77v-6z" fill="#4f6038"/><path d="M234 144c3.238 6.291 3.122 12.04 3 19l-9-1v-1h7l-.5-3.437c-.576-4.533-.595-9-.5-13.562z" fill="#7aa91d"/><path d="M177 105l2 1-1.625 6.375-.914 3.586C175 119 175 119 171.852 120.414L169 121l-1-2 1.938-.75c2.224-1.025 2.224-1.025 2.563-3.062L173 113l2.063-4.25 1.098-2.141L177 105z" fill="#81b719"/><path d="M56 158c1.377 3.826.8 7.075 0 11l-2 2v-3l-3-1c1.249-3.459 2.675-6.147 5-9z" fill="#2e312d"/><path d="M299 159h1v5l9-1-2-3 5-1c1.563 1.75 1.563 1.75 3 4-.312 2.25-.312 2.25-1 4l-2-3-1 1-6.062.063-3.348-.027L299 165v-6z" fill="#676767"/><path d="M126 221l7 5-2 3 2 3c-3.579-1.652-6.748-3.783-10-6l1.5-1.375c1.726-1.501 1.726-1.501 1.5-3.625z" fill="#2c2b26"/><path d="M144 104v2c-4.951 4.148-10.677 5.894-17 7l-2-1 3.211-1.496 4.164-1.941 2.117-.986C142.161 104 142.161 104 144 104z" fill="#76a619"/><path d="M249 64l2.063 1.813c3.254 2.423 6.177 3.713 9.938 5.188v2h11v1c-8.078.606-13.7.389-20-5-1.715-1.543-1.715-1.543-3-3v-2z" fill="#a2a1a2"/><path d="M292 264h4l.938 2.938c.758 2.903.758 2.903 2.063 4.063v7h-1l-1-6-3-1-1-3-3 3 2-7z" fill="#5a5a5a"/><path d="M262 336h1l1 9 11 1v1c-9.001.618-9.001.618-12.625-1.625-1.735-2.997-1.754-4.966-1.375-8.375l1-1z" fill="#577517"/><path d="M306 84c2.375-.187 2.375-.187 5 0l2 3h-2v3h-7l-2-4 8 1v-2l-4-1z" fill="#7c9d3e"/><path d="M205 248l5 2v3h3v2h3v-3l3 1-3 4c-2.125 0-2.125 0-5-1-2.255-2.498-4.143-5.198-6-8z" fill="#4a6710"/><path d="M165 130c-3.924 2.803-7.399 4.6-12 6l-2.125 1.188c-2.371 1.027-3.453.521-5.875-.187l8.875-4.062 2.551-1.182 2.441-1.104 2.253-1.031C163 129 163 129 165 130z" fill="#415910"/><path d="M222 182c3.298.569 4.8 1.5 7 4l2 2c-3.766 1.255-5.372.371-9-1v-5z" fill="#060a05"/><path d="M62 154c.652 1.734.652 1.734 1 4-.996 2.141-.996 2.141-2.437 4.25l-1.434 2.141L58 166l-2-4c1.083-3.465 3.388-5.562 6-8z" fill="#071102"/><path d="M244 58h1l1 6h3l-1 7h-2v-4h-2v2l-2-1 2-10z" fill="#686868"/><path d="M226 219h1l1.063 7.688.314 2.186c.525 3.968.729 7.206-.377 11.127h-1c-1.112-4.438-1.115-8.77-1.062-13.312l.014-2.244L226 219z" fill="#b0b1af"/><path d="M52 175c.976 3.383.859 5.566 0 9h-2v4l3 1-5 4c.39-6.559 1.421-11.945 4-18z" fill="#77a523"/><path d="M291 78c3.795 1.491 5.61 3.757 8 7-3.867 0-6.509-1.419-10-3l2-4z" fill="#81b41d"/><path d="M212 139c1.875.188 1.875.188 4 1 1.522 2.891 2 4.718 2 8h-3c-2.5-3.333-3-4.733-3-9z" fill="#12190d"/><path d="M51 167l3 1c-.508 4.318-1.197 8.033-3 12-.967-3.122-.99-5.521-.562-8.75l.309-2.422L51 167z" fill="#080f03"/><path d="M243 112h12l-1 3c-7.429.143-7.429.143-11-1v-2z" fill="#0b0b0b"/><path d="M305 92c4.55 1.517 6.501 5.169 9 9l-1 2-1-1-2 2-.84-2.117-1.098-2.758-1.09-2.742c-.922-2.344-.922-2.344-1.973-4.383z" fill="#363537"/><path d="M233.602 68.805l3.023.07 3.039.055L242 69c-3.34 2.226-6.086 3.161-10 4l-3-2c2-2 2-2 4.602-2.195z" fill="#3a3f3b"/><path d="M261 297h17v1h-14v7c-1.473-2.75-2.224-4.896-3-8z" fill="#77ae10"/><path d="M271 214l-1 10-2-4-2 1 1-6c2-1 2-1 4-1z" fill="#212121"/><path d="M108 164l4 1c1.452 4.537 2.235 8.181 2 13-1.939-2.909-2.968-5.409-4.125-8.687l-1.07-3.012L108 164z" fill="#4d6812"/><path d="M171 142l8 10h-6c-1.316-3.62-2-6.096-2-10z" fill="#7bad16"/><path d="M219 131l1 3-4-1 1 11c-1.838-3.677-2.937-7.05-4-11 3-2 3-2 6-2z" fill="#749f1d"/><path d="M252 62l1.051 1.953c2.83 2.972 5.113 2.649 9.137 2.797l3.855.172L269 67v1l-7.312.75-2.092.246c-2.021.176-2.021.176-5.596.004-2.043-1.797-2.043-1.797-3-4l1-3z" fill="#515151"/><path d="M253 274h2l.625 5.375.352 3.023L256 285l-2 2v-4l-2-1 1-8z" fill="#030802"/><path d="M75 136c0 4.091-1.699 5.449-4.332 8.414-2.037 1.937-3.959 2.869-6.668 3.586 3.509-4.184 7.081-8.196 11-12z" fill="#696667"/><path d="M328 350v2c-3.215 1.607-6.436 1.057-10 1 1-2 1-2 3.313-3.187 2.807-.849 3.989-.812 6.688.188z" fill="#050a02"/><path d="M307 92l7 1-1 7-6-8z" fill="#d4d5d5"/><path d="M110 155l2 1-1.375 1.75c-1.466 2.03-2.574 3.985-3.625 6.25-2-3-2-3-2-6 2.375-1.75 2.375-1.75 5-3z" fill="#496311"/><path d="M169 90c-4.898 3.894-8.795 4.724-15 5 1-2 1-2 3.652-3.105l3.285-1.082 3.277-1.105C167 89 167 89 169 90z" fill="#58585a"/><path d="M311 87h2l2 5h-10l1-2h5v-3z" fill="#0f1806"/><path d="M306 83v2h4v2c-2.375.125-2.375.125-5 0l-2-2-4-2c2.667-1.333 4.167-.671 7 0z" fill="#151e0f"/><path d="M209 333l3 1-3.312 3.938-1.863 2.215C205 342 205 342 202 343c1.557-3.822 4.074-6.151 7-9v-1z" fill="#bdbdbd"/><path d="M324 180l1 2-3 4-1-2-4 4-2-1c4.431-5.785 4.431-5.785 7.313-6.875L324 180z" fill="#414141"/><path d="M183 85l-2 1-1 3h-11c4.503-3.002 8.578-4.319 14-4z" fill="#444346"/><path d="M303 328l7 4-4 1v2l-3-1v-6z" fill="#30332c"/><path d="M223 188l6 2-2 7-2 1 1-7-3-1v-2z" fill="#7eaf1d"/><path d="M228 162c2.164.023 2.164.023 4.625.375l2.477.336L237 163l-1 3-10-2 2-2z" fill="#28341c"/><path d="M101 126l-1 4h-2l-1 3-1-2-3-1c5.75-4 5.75-4 8-4z" fill="#7cb415"/><path d="M293 84c3.297.658 5.841 1.894 8.75 3.563l2.422 1.379L306 90l-2 2-5.5-3.437-3.094-1.934L293 85v-1z" fill="#384c1f"/><path d="M319 342c3.147.699 6.026 1.761 9 3l-1 4h-2v-3l-6-2v-2z" fill="#5a7a18"/><path d="M264 258l3 1-8 7c0-3 0-3 2.5-5.687L264 258z" fill="#494949"/><path d="M129 223h5l1 4 4 1-3 1c-1.824-.961-1.824-.961-3.687-2.375l-1.887-1.398L129 224v-1z" fill="#7eb01d"/><path d="M311 141l2 5c-3.576 0-5.053-1.088-8-3 3.75-2 3.75-2 6-2z" fill="#7c7c7c"/><path d="M294 273v1l-9 1-2-3c7.429-1.429 7.429-1.429 11 1z" fill="#1f2911"/><path d="M131 227l5 1v5h-3c-1.687-2.5-1.687-2.5-3-5l1-1z" fill="#10130d"/><path d="M115 147c-3.41 2.865-6.907 4.347-11 6v-2h2v-2c3.135-1.858 5.375-2.201 9-2z" fill="#7db01a"/><path d="M196 101l-1.562.688c-3.362 1.81-6.367 4.052-9.437 6.313 2.127-6.217 4.546-7.287 11-7z" fill="#bcbbbe"/><path d="M294 316h1l1 8 3 1-3 1c-1.562-1.062-1.562-1.062-3-3 .313-3.687.313-3.687 1-7z" fill="#4a494b"/><path d="M240 167c1.938.25 1.938.25 4 1l2 3-4 1-3-4 1-1z" fill="#29282a"/><path d="M124 140l4 1-10 5 2-5 4 1v-2z" fill="#7eb519"/><path d="M238 109l6 2-1 3-6-2 1-3z" fill="#161616"/><path d="M155 99l2 1-2 3c-1.945.293-1.945.293-4.125.188L147 103c2.689-1.792 4.953-2.984 8-4z" fill="#72a017"/><path d="M232 72l-1 6c-3.875-1.75-3.875-1.75-5-4 3-2 3-2 6-2z" fill="#182f06"/><path d="M198 242l5 5h-4l-1 3-2-3 2-1v-4z" fill="#1e231a"/><path d="M225 198c1.188 3.429.802 5.378-.437 8.75l-.871 2.422L223 211c-1.477-4.723-.186-8.628 2-13z" fill="#4a6714"/><path d="M80 139l2 1c-.625 1.875-.625 1.875-2 4-3.125 1.25-3.125 1.25-6 2l6-7z" fill="#7cb01b"/><path d="M216 126v3l3 2-6 2-1-5 4-2z" fill="#1d2313"/><path d="M228 102l4 1-1 3h-4l-1 3c.875-4.75.875-4.75 2-7z" fill="#252525"/><path d="M293 76l3 1v2h3l-2 4-4-4v-3z" fill="#415235"/><path d="M293 289h1c.369 5.538.369 5.538-1.5 7.875L291 298c-.25-5.625-.25-5.625 2-9z" fill="#020501"/><path d="M258 162l4 2-1 2-8-1v-1h5v-2z" fill="#333"/><path d="M115 118c-.562 1.938-.562 1.938-2 4-3.625.75-3.625.75-7 1 1.631-3.262 5.38-5 9-5z" fill="#76a719"/><path d="M270 207h1v7l-3 1c.875-6.875.875-6.875 2-8z" fill="#161616"/><path d="M312 163l2 1v3h-10v-1h7l1-3z" fill="#030303"/></svg>