<svg xmlns="http://www.w3.org/2000/svg" viewBox="0 0 128 128" fill-rule="evenodd" xmlns:v="https://vecta.io/nano"><path fill="#439934" d="M88.038 42.812c1.605 4.643 2.761 9.383 3.141 14.296.472 6.095.256 12.147-1.029 18.142-.035.165-.109.32-.164.48-.403.001-.814-.049-1.208.012l-9.981 1.604-10.313 1.687c-1.216.21-2.721-.041-3.212 1.641-.014.046-.154.054-.235.08l.166-10.051-.169-24.252 1.602-.275 7.862-1.281 9.392-1.465 4.148-.618z"/><path fill="#45a538" d="M61.729 110.054l-5.059-4.37c-8.717-8.222-15.093-17.899-18.233-29.566-.865-3.211-1.442-6.474-1.627-9.792-.13-2.322-.318-4.665-.154-6.975.437-6.144 1.325-12.229 3.127-18.147l.099-.138c.175.233.427.439.516.702l5.242 15.551 16.376 48.9c.107.318.384.579.583.866l-.87 2.969z"/><path fill="#46a037" d="M88.038 42.812l-4.149.616-9.392 1.465-7.862 1.281-1.602.275-.012-1.045-.154-2.576-.18-16.434-.175-10.285-.185-6.388-.311-3.423c-.042-.657.016-1.319.029-1.979l2.456 4.749c1.327 2.484 3.441 4.314 5.344 6.311 7.523 7.892 12.864 17.068 16.193 27.433z"/><path fill="#409433" d="M65.036 80.753c.081-.026.222-.034.235-.08.491-1.682 1.996-1.431 3.212-1.641l10.313-1.687 9.981-1.604c.394-.062.805-.011 1.208-.012l-1.901 6.647c-.896 2.449-1.98 4.839-3.131 7.182a49.142 49.142 0 0 1-6.353 9.763c-1.919 2.308-4.058 4.441-6.202 6.548-1.185 1.165-2.582 2.114-3.882 3.161l-.337-.23-1.214-1.038-1.256-2.753a41.402 41.402 0 0 1-1.394-9.838l.023-.561.171-2.426.168-2.485.359-8.946z"/><path fill="#4faa41" d="M65.036 80.753l-.357 8.947-.168 2.485-.765.289-5.062-14.913-8.213-24.642a4498.887 4498.887 0 0 0-6.7-19.867c-.105-.31-.407-.552-.617-.826l4.896-9.002c.168.292.39.565.496.879a6167.476 6167.476 0 0 1 6.768 20.118l8.728 26.198c.116.349.308.671.491 1.062l.67-.78-.167 10.052z"/><path fill="#4aa73c" d="M43.155 32.227c.21.274.511.516.617.826a4498.887 4498.887 0 0 1 6.7 19.867l8.213 24.642 5.062 14.913.765-.289-.171 2.426-.155.559-.814 7.968c-.163 1.328-.509 2.632-.772 3.947-.198-.287-.476-.548-.583-.866l-16.376-48.9a3888.972 3888.972 0 0 0-5.242-15.551c-.089-.263-.34-.469-.516-.702l3.272-8.84z"/><path fill="#57ae47" d="M65.202 70.702l-.67.78-.491-1.062-8.728-26.198a6167.476 6167.476 0 0 0-6.768-20.118c-.105-.314-.327-.588-.496-.879l6.055-7.965c.191.255.463.482.562.769l5.003 14.778 4.636 13.813c.105.308.47.526.714.786l.012 1.045.171 24.251z"/><path fill="#60b24f" d="M65.021 45.404c-.244-.26-.609-.478-.714-.786l-4.636-13.813-5.003-14.778c-.099-.287-.371-.514-.562-.769l5.925-5.764c1.821-1.634 3.285-3.386 3.352-5.968.003-.107.059-.214.145-.514l.519 1.306-.029 1.979.311 3.423.185 6.388.175 10.285.18 16.434c.008.861.098 1.718.152 2.577z"/><path fill="#a9aa88" d="M62.598 107.085l.772-3.947.814-7.968.066-.01.066.011a41.402 41.402 0 0 0 1.394 9.838c-.176.232-.425.439-.518.701l-2.143 6.166c-.1.28-.378.498-.574.744l-.747-2.566.87-2.969z"/><path fill="#b6b598" d="M62.476 112.621c.196-.246.475-.464.574-.744l2.143-6.166c.093-.262.341-.469.518-.701l1.255 2.754c-.248.352-.59.669-.728 1.061l-2.404 7.059c-.099.283-.437.483-.663.722l-.695-3.985z"/><path fill="#c2c1a7" d="M63.171 116.605c.227-.238.564-.439.663-.722l2.404-7.059c.137-.391.48-.709.728-1.061l1.215 1.037c-.587.58-.913 1.25-.717 2.097l-.369 1.208c-.168.207-.411.387-.494.624l-2.485 7.222c-.107.305-.404.544-.614.812l-.331-4.158z"/><path fill="#cecdb7" d="M63.503 120.763c.209-.269.506-.508.614-.812l2.485-7.222c.083-.236.325-.417.494-.624l-.509 5.545c-.136.157-.333.294-.398.477l-1.694 4.854c-.119.333-.347.627-.525.938-.158-.207-.441-.407-.454-.623-.051-.841-.016-1.688-.013-2.533z"/><path fill="#dbdac7" d="M63.969 123.919c.178-.312.406-.606.525-.938l1.694-4.854c.065-.183.263-.319.398-.477l.012 3.64-1.218 3.124-1.411-.495z"/><path fill="#ebe9dc" d="M65.38 124.415l1.218-3.124.251 3.696-1.469-.572z"/><path fill="#cecdb7" d="M67.464 110.898c-.196-.847.129-1.518.717-2.097l.337.23-1.054 1.867z"/><path fill="#4faa41" d="M64.316 95.172l-.066-.011-.066.01.155-.559-.023.56z"/></svg>