<?xml version="1.0" encoding="UTF-8"?>
<svg version="1.1" xmlns="http://www.w3.org/2000/svg" width="379" height="379">
<path d="M0 0 C46.99139786 -0.02202526 93.98279087 -0.04049716 140.97419241 -0.05106533 C146.51575393 -0.05231611 152.05731545 -0.05361043 157.59887695 -0.05493164 C158.70215149 -0.05519395 159.80542603 -0.05545626 160.94213314 -0.05572652 C178.83110471 -0.06008367 196.72007308 -0.06797147 214.60904276 -0.0771528 C232.95027865 -0.08648808 251.29151287 -0.09205534 269.63275105 -0.09408849 C280.95993837 -0.09546398 292.28711667 -0.09981597 303.61430121 -0.10791647 C311.37058568 -0.11318238 319.12686545 -0.11480465 326.88315158 -0.11350138 C331.36519643 -0.11285775 335.84722544 -0.11387823 340.3292675 -0.11920547 C344.42554778 -0.12403895 348.52180143 -0.12433899 352.61808289 -0.12089889 C354.10665126 -0.12047315 355.59522124 -0.12176932 357.08378642 -0.12488318 C359.09390127 -0.12884641 361.10402606 -0.12615669 363.11414242 -0.12304783 C364.23469711 -0.12342755 365.35525181 -0.12380727 366.5097627 -0.1241985 C369 0 369 0 370 1 C370.09834335 2.68060001 370.12632003 4.36535333 370.12698364 6.04882812 C370.12980347 7.14259766 370.13262329 8.23636719 370.13552856 9.36328125 C370.13249222 11.17892578 370.13249222 11.17892578 370.12939453 13.03125 C370.13202301 14.93100586 370.13202301 14.93100586 370.13470459 16.86914062 C370.13927845 20.35251819 370.13748956 23.83586627 370.1343255 27.31924438 C370.13180166 30.95697105 370.13413951 34.59469512 370.13571167 38.23242188 C370.13753329 44.34245255 370.13512725 50.45247116 370.13037109 56.5625 C370.12492849 63.63627845 370.12669115 70.71002809 370.1321975 77.78380585 C370.13672884 83.84663897 370.13737908 89.9094634 370.13475883 95.97229767 C370.13319617 99.59799167 370.13300199 103.2236721 370.13629532 106.84936523 C370.13970819 110.88917765 370.13498396 114.92894003 370.12939453 118.96875 C370.13141876 120.17917969 370.13344299 121.38960938 370.13552856 122.63671875 C370.13129883 124.27737305 370.13129883 124.27737305 370.12698364 125.95117188 C370.12660662 126.90761597 370.12622959 127.86406006 370.12584114 128.8494873 C370 131 370 131 369 132 C366.621922 132.09764835 364.27292872 132.12997133 361.89439392 132.12025452 C361.14216586 132.12110894 360.3899378 132.12196337 359.61491495 132.12284368 C357.07520285 132.12450074 354.5355557 132.11897345 351.99584961 132.11352539 C350.18291729 132.11324354 348.36998486 132.11340121 346.55705261 132.1139679 C341.61924287 132.11425596 336.68145719 132.10835781 331.74365306 132.10139394 C326.58932157 132.09516186 321.43498958 132.09455672 316.28065491 132.09336853 C306.51295908 132.09025478 296.74527438 132.08204081 286.97758347 132.07201904 C275.86048188 132.06085925 264.74337978 132.05534779 253.62627399 132.05032361 C230.75084294 132.03985823 207.87542256 132.02205759 185 132 C185 138.93 185 145.86 185 153 C157.61 153 130.22 153 102 153 C102 146.07 102 139.14 102 132 C68.34 132 34.68 132 0 132 C0 88.44 0 44.88 0 0 Z M22 24 C22 51.72 22 79.44 22 108 C34.87 108 47.74 108 61 108 C61 86.88 61 65.76 61 44 C68.26 44 75.52 44 83 44 C83 65.12 83 86.24 83 108 C89.27 108 95.54 108 102 108 C102 80.28 102 52.56 102 24 C75.6 24 49.2 24 22 24 Z M124 24 C124 58.98 124 93.96 124 130 C136.87 130 149.74 130 163 130 C163 122.74 163 115.48 163 108 C176.53 108 190.06 108 204 108 C204 80.28 204 52.56 204 24 C177.6 24 151.2 24 124 24 Z M227 24 C227 51.72 227 79.44 227 108 C239.87 108 252.74 108 266 108 C266 86.88 266 65.76 266 44 C273.26 44 280.52 44 288 44 C288 65.12 288 86.24 288 108 C294.27 108 300.54 108 307 108 C307 86.88 307 65.76 307 44 C314.26 44 321.52 44 329 44 C329 65.12 329 86.24 329 108 C335.27 108 341.54 108 348 108 C348 80.28 348 52.56 348 24 C308.07 24 268.14 24 227 24 Z " fill="#CA3D3C" transform="translate(5,113)"/>
<path d="M0 0 C7.26 0 14.52 0 22 0 C22 14.85 22 29.7 22 45 C2 45 2 45 0 44 C0 29.48 0 14.96 0 0 Z " fill="#C94243" transform="translate(168,157)"/>
<path d="M0 0 C46.99139786 -0.02202526 93.98279087 -0.04049716 140.97419241 -0.05106533 C146.51575393 -0.05231611 152.05731545 -0.05361043 157.59887695 -0.05493164 C158.70215149 -0.05519395 159.80542603 -0.05545626 160.94213314 -0.05572652 C178.83110471 -0.06008367 196.72007308 -0.06797147 214.60904276 -0.0771528 C232.95027865 -0.08648808 251.29151287 -0.09205534 269.63275105 -0.09408849 C280.95993837 -0.09546398 292.28711667 -0.09981597 303.61430121 -0.10791647 C311.37058568 -0.11318238 319.12686545 -0.11480465 326.88315158 -0.11350138 C331.36519643 -0.11285775 335.84722544 -0.11387823 340.3292675 -0.11920547 C344.42554778 -0.12403895 348.52180143 -0.12433899 352.61808289 -0.12089889 C354.10665126 -0.12047315 355.59522124 -0.12176932 357.08378642 -0.12488318 C359.09390127 -0.12884641 361.10402606 -0.12615669 363.11414242 -0.12304783 C364.23469711 -0.12342755 365.35525181 -0.12380727 366.5097627 -0.1241985 C369 0 369 0 370 1 C370.09616807 2.68291696 370.12187691 4.36989561 370.12025452 6.05555725 C370.12231651 7.69837929 370.12231651 7.69837929 370.12442017 9.37438965 C370.12082489 10.58639038 370.11722961 11.79839111 370.11352539 13.04711914 C370.11367142 14.31522934 370.11381744 15.58333954 370.1139679 16.88987732 C370.11425585 20.37732422 370.10835945 23.86473701 370.10139394 27.35217595 C370.09516007 30.99303723 370.09455658 34.63389922 370.09336853 38.27476501 C370.09025531 45.17376972 370.08204205 52.07275865 370.07201904 58.9717564 C370.06085761 66.82410685 370.05534738 74.67645803 370.05032361 82.52881444 C370.03985943 98.68588553 370.02226017 114.84294076 370 131 C369.34 131 368.68 131 368 131 C368 88.43 368 45.86 368 2 C247.22 2 126.44 2 2 2 C2 44.57 2 87.14 2 131 C35 131 68 131 102 131 C102 131.33 102 131.66 102 132 C68.34 132 34.68 132 0 132 C0 88.44 0 44.88 0 0 Z " fill="#B34655" transform="translate(5,113)"/>
<path d="M0 0 C0.99 0.33 1.98 0.66 3 1 C2.89266887 11.93503366 2.78007071 22.86999897 2.66066074 33.8049078 C2.60538726 38.88187884 2.55196033 43.95885559 2.50268555 49.03588867 C2.45510709 53.93125663 2.40276692 58.82655221 2.34705925 63.72183418 C2.32660605 65.59380871 2.30789799 67.4658031 2.29092598 69.33781242 C2.26694732 71.95046076 2.23688426 74.56297097 2.20532227 77.17553711 C2.1995668 77.95740387 2.19381134 78.73927063 2.18788147 79.54483032 C2.11405216 84.88594784 2.11405216 84.88594784 1 86 C-0.54955559 86.09899523 -2.10353673 86.13079524 -3.65625 86.1328125 C-5.06583984 86.13474609 -5.06583984 86.13474609 -6.50390625 86.13671875 C-7.98697266 86.13091797 -7.98697266 86.13091797 -9.5 86.125 C-10.48871094 86.12886719 -11.47742188 86.13273437 -12.49609375 86.13671875 C-13.90568359 86.13478516 -13.90568359 86.13478516 -15.34375 86.1328125 C-16.21193359 86.13168457 -17.08011719 86.13055664 -17.97460938 86.12939453 C-20 86 -20 86 -21 85 C-21.09405142 83.0056827 -21.11743249 81.00800457 -21.11352539 79.01147461 C-21.11344986 77.73022202 -21.11337433 76.44896942 -21.11329651 75.12889099 C-21.10818909 73.72004152 -21.10297309 72.31119244 -21.09765625 70.90234375 C-21.09579202 69.46887766 -21.09436814 68.03541093 -21.09336853 66.60194397 C-21.08954372 62.82240043 -21.07971377 59.0428951 -21.06866455 55.2633667 C-21.05844963 51.40930702 -21.05387074 47.55524118 -21.04882812 43.70117188 C-21.03809145 36.13409512 -21.02049497 28.56705777 -21 21 C-27.6 21 -34.2 21 -41 21 C-41 20.67 -41 20.34 -41 20 C-33.74 20 -26.48 20 -19 20 C-19 41.12 -19 62.24 -19 84 C-12.73 84 -6.46 84 0 84 C0 56.28 0 28.56 0 0 Z " fill="#B34A4B" transform="translate(353,137)"/>
<path d="M0 0 C0.99 0.495 0.99 0.495 2 1 C2.33 28.72 2.66 56.44 3 85 C1.515 85.495 1.515 85.495 0 86 C0 57.62 0 29.24 0 0 Z " fill="#B73F3E" transform="translate(210,136)"/>
<path d="" fill="#FFFFFF" transform="translate(0,0)"/>
<path d="" fill="#FFFFFF" transform="translate(0,0)"/>
<path d="" fill="#FFFFFF" transform="translate(0,0)"/>
<path d="" fill="#FFFFFF" transform="translate(0,0)"/>
<path d="" fill="#FFFFFF" transform="translate(0,0)"/>
<path d="" fill="#FFFFFF" transform="translate(0,0)"/>
<path d="" fill="#FFFFFF" transform="translate(0,0)"/>
<path d="" fill="#FFFFFF" transform="translate(0,0)"/>
<path d="" fill="#FFFFFF" transform="translate(0,0)"/>
<path d="" fill="#FFFFFF" transform="translate(0,0)"/>
<path d="" fill="#FFFFFF" transform="translate(0,0)"/>
<path d="" fill="#FFFFFF" transform="translate(0,0)"/>
<path d="" fill="#FFFFFF" transform="translate(0,0)"/>
<path d="" fill="#FFFFFF" transform="translate(0,0)"/>
<path d="" fill="#FFFFFF" transform="translate(0,0)"/>
<path d="" fill="#FFFFFF" transform="translate(0,0)"/>
<path d="" fill="#FFFFFF" transform="translate(0,0)"/>
</svg>
