<?xml version="1.0" encoding="UTF-8"?>
<svg version="1.1" xmlns="http://www.w3.org/2000/svg" width="500" height="500">
<path d="M0 0 C2.54194726 2.22777401 4.74391015 4.47532802 7 7 C6.49210938 8.01578125 5.98421875 9.0315625 5.4609375 10.078125 C5.1304541 10.73925293 4.7999707 11.40038086 4.45947266 12.08154297 C3.73310479 13.53395166 3.00621185 14.98609786 2.27880859 16.43798828 C0.57475128 19.84084115 -1.12455799 23.2454825 -2.796875 26.6640625 C-3.31765625 27.72367188 -3.8384375 28.78328125 -4.375 29.875 C-5.06722656 31.29425781 -5.06722656 31.29425781 -5.7734375 32.7421875 C-7 35 -7 35 -9 37 C-9.99 37 -10.98 37 -12 37 C-13.37073786 35.36395804 -14.70055256 33.69321939 -16 32 C-16.7425 31.443125 -17.485 30.88625 -18.25 30.3125 C-18.8275 29.879375 -19.405 29.44625 -20 29 C-20 28.34 -20 27.68 -20 27 C-20.7321875 26.72929687 -21.464375 26.45859375 -22.21875 26.1796875 C-24.89398667 25.04496633 -27.08162394 23.72344719 -29.5 22.125 C-42.94874138 14.10294374 -58.28780997 12.83912651 -73.578125 15.66015625 C-81.11861277 18.09291138 -86.96203132 22.56092785 -91 29.375 C-92.7096029 35.57231051 -92.99756332 40.53700909 -90.0625 46.375 C-89.70285156 47.00148438 -89.34320313 47.62796875 -88.97265625 48.2734375 C-88 50 -88 50 -87 53 C-85.2870847 54.0489486 -85.2870847 54.0489486 -83 55 C-81.43958984 55.84111328 -81.43958984 55.84111328 -79.84765625 56.69921875 C-69.73874255 62.06080759 -59.42346521 65.74139039 -48.53369141 69.19287109 C-38.71651676 72.32021542 -29.15252176 75.75788136 -19.8125 80.125 C-19.11737305 80.44976318 -18.42224609 80.77452637 -17.70605469 81.10913086 C-13.55634641 83.10441683 -9.68994606 85.23397512 -6 88 C-6 88.66 -6 89.32 -6 90 C-5.401875 90.28875 -4.80375 90.5775 -4.1875 90.875 C-2 92 -2 92 1 94 C1 94.66 1 95.32 1 96 C1.66 96 2.32 96 3 96 C4.37310707 97.29233607 5.71034824 98.62437146 7 100 C7.7425 98.2984375 7.7425 98.2984375 8.5 96.5625 C10.558822 91.9265001 12.71031493 87.33715566 14.875 82.75 C15.22570557 82.00524414 15.57641113 81.26048828 15.93774414 80.49316406 C17.46343616 77.2538401 18.99221111 74.01631108 20.53515625 70.78515625 C24.28078778 62.84525208 27.59507238 54.75652169 30.84155273 46.60083008 C32.62320563 42.1661362 34.41313916 38.03899438 37 34 C37.69579454 31.80869466 37.69579454 31.80869466 38 30 C38.66 30 39.32 30 40 30 C40.12117187 29.28714844 40.24234375 28.57429688 40.3671875 27.83984375 C42.33759316 18.99734427 47.05450666 10.74532801 51.1796875 2.75390625 C52.52144746 0.07971408 53.67268029 -2.62215456 54.7578125 -5.41015625 C55.04994629 -6.14331055 55.34208008 -6.87646484 55.64306641 -7.63183594 C56.20308235 -9.05692494 56.74034796 -10.49122141 57.25146484 -11.93457031 C58.03125 -13.89453125 58.03125 -13.89453125 60 -17 C62.71345748 -17.87205406 64.22243055 -18.03212655 67 -18 C67.9286084 -18.01796631 68.8572168 -18.03593262 69.81396484 -18.05444336 C73.02313448 -18.09889656 76.22815594 -18.08726052 79.4375 -18.0625 C80.55060547 -18.05798828 81.66371094 -18.05347656 82.81054688 -18.04882812 C85.54042101 -18.03711193 88.27018174 -18.02070699 91 -18 C93.49517262 -13.16418845 95.73607299 -8.33660254 97.6875 -3.25 C100.00981958 2.6901698 102.54087016 8.51011675 105.1875 14.3125 C109.33218503 23.40547696 113.24927203 32.58551255 117.10620117 41.80395508 C119.61503284 47.78669693 122.21063175 53.71613325 124.91503906 59.61303711 C126.17442319 62.38373886 127.35278697 65.18113369 128.5 68 C130.07024082 71.81064672 131.70373711 75.57355448 133.4375 79.3125 C135.43604781 83.65417284 137.2472872 88.05466543 139 92.5 C141.08257164 97.7762875 143.29342986 102.96529795 145.67578125 108.11328125 C147.49914265 112.08810153 149.24218466 116.09699849 150.98754883 120.10644531 C152.88210457 124.45440793 154.79375026 128.79432408 156.71875 133.12890625 C165.32372092 152.53301382 165.32372092 152.53301382 168.8125 162.01171875 C170.54771206 166.37828857 172.58528622 170.59766228 174.67871094 174.80322266 C176.59626184 178.74940868 177.25012481 181.50074884 178 186 C166.45 186 154.9 186 143 186 C137.37884615 174.75769231 137.37884615 174.75769231 134.95703125 169.2578125 C134.44076172 168.08992187 133.92449219 166.92203125 133.39257812 165.71875 C132.87115234 164.5328125 132.34972656 163.346875 131.8125 162.125 C130.75781215 159.73119264 129.70137644 157.33816953 128.64453125 154.9453125 C127.95387573 153.37547607 127.95387573 153.37547607 127.24926758 151.77392578 C126.22090483 149.4905063 125.11995843 147.23991687 124 145 C93.31 144.505 93.31 144.505 62 144 C62 133.44 62 122.88 62 112 C65.12984375 111.95101562 68.2596875 111.90203125 71.484375 111.8515625 C74.51599912 111.79755107 77.54754427 111.74024417 80.57910156 111.68261719 C82.68581254 111.64433694 84.79258867 111.6094824 86.89941406 111.578125 C89.92797121 111.53245402 92.95608022 111.47446255 95.984375 111.4140625 C97.39707672 111.39673569 97.39707672 111.39673569 98.83831787 111.37905884 C99.71892883 111.35918915 100.59953979 111.33931946 101.50683594 111.31884766 C102.66599518 111.29886215 102.66599518 111.29886215 103.84857178 111.2784729 C106.25118769 110.9674872 107.90710138 110.19312386 110 109 C109.2575 107.88625 109.2575 107.88625 108.5 106.75 C107 104 107 104 107 100 C106.34 100 105.68 100 105 100 C104.36384766 98.42025391 104.36384766 98.42025391 103.71484375 96.80859375 C100.84289336 89.72803594 97.91867389 82.70838866 94.625 75.8125 C91.57759653 69.42079367 88.82027574 62.92243027 86.125 56.375 C85.73135254 55.4260083 85.33770508 54.4770166 84.93212891 53.49926758 C84.56522949 52.59974365 84.19833008 51.70021973 83.8203125 50.7734375 C83.49305176 49.97341309 83.16579102 49.17338867 82.82861328 48.34912109 C81.97016923 45.91542968 81.4454146 43.53903215 81 41 C80.34 41 79.68 41 79 41 C78.01 36.545 78.01 36.545 77 32 C74.40698185 34.59301815 73.58005532 35.49628376 72.3515625 38.66015625 C72.07094971 39.36664307 71.79033691 40.07312988 71.5012207 40.80102539 C71.21206787 41.54731201 70.92291504 42.29359863 70.625 43.0625 C67.75513425 50.25420632 64.56908219 57.14728919 60.9453125 63.9921875 C59.05689263 67.63727701 57.52569448 71.24083383 56.1875 75.125 C54.4064099 80.20180801 52.10835238 84.88167884 49.6418457 89.65771484 C47.152296 94.54078018 45.17076359 99.51228885 43.3359375 104.671875 C41.86229994 108.34304226 40.11928784 111.80714786 38.32910156 115.33203125 C36.15117273 119.70389133 34.1812081 124.16693012 32.1875 128.625 C28.02132209 137.87339646 23.62250399 146.97223763 19 156 C18.67 156.66 18.34 157.32 18 158 C17.34 158 16.68 158 16 158 C15.6596875 158.804375 15.6596875 158.804375 15.3125 159.625 C13.54429911 162.82460161 11.46329797 165.29037223 9 168 C8.34 168 7.68 168 7 168 C7 168.66 7 169.32 7 170 C5.68 170.33 4.36 170.66 3 171 C3 171.66 3 172.32 3 173 C0.89983377 174.17441535 -1.20458755 175.33964012 -3.3125 176.5 C-3.90740234 176.83386719 -4.50230469 177.16773438 -5.11523438 177.51171875 C-7.95828844 179.06825114 -9.70660988 180 -13 180 C-13 180.66 -13 181.32 -13 182 C-14.95620578 182.63162757 -16.91511071 183.25489646 -18.875 183.875 C-20.51082031 184.39707031 -20.51082031 184.39707031 -22.1796875 184.9296875 C-31.9107262 187.65597033 -41.12986039 188.37269305 -51.20141602 188.37060547 C-53.53412718 188.37494719 -55.86489131 188.41127794 -58.19726562 188.44921875 C-72.54444381 188.55823669 -85.83626898 185.84390051 -99.125 180.3125 C-100.37301392 179.8009436 -100.37301392 179.8009436 -101.64624023 179.27905273 C-113.76932044 174.15421681 -125.5633588 167.28744529 -135 158 C-135.33 157.01 -135.66 156.02 -136 155 C-134.85546875 152.95703125 -134.85546875 152.95703125 -133.1875 150.8125 C-132.64480469 150.09707031 -132.10210937 149.38164062 -131.54296875 148.64453125 C-131.03378906 148.10183594 -130.52460938 147.55914062 -130 147 C-129.34 147 -128.68 147 -128 147 C-127.76152344 146.44699219 -127.52304688 145.89398438 -127.27734375 145.32421875 C-125.69957045 142.45334685 -123.75238294 140.24690189 -121.5625 137.8125 C-120.38880859 136.49185547 -120.38880859 136.49185547 -119.19140625 135.14453125 C-117 133 -117 133 -114 132 C-113.34 132.33 -112.68 132.66 -112 133 C-112 133.66 -112 134.32 -112 135 C-110.89978516 135.39638672 -110.89978516 135.39638672 -109.77734375 135.80078125 C-107.00319908 136.99861868 -104.96404879 138.36864935 -102.5625 140.1875 C-87.67437895 150.8313955 -69.51632804 157.70265085 -51 156 C-42.50568897 154.47293285 -32.31896599 151.71917439 -26.875 144.5625 C-23.81512574 138.80337952 -24.06284923 132.30380323 -25 126 C-26.52777928 122.1974023 -28.25073183 118.87463408 -32 117 C-32 116.34 -32 115.68 -32 115 C-33.2375 114.62875 -33.2375 114.62875 -34.5 114.25 C-38 113 -38 113 -41.49609375 111.14453125 C-46.63976251 108.54015698 -52.03723747 107.02480912 -57.5625 105.4375 C-63.90115814 103.59908532 -69.96784296 101.6775391 -76 99 C-77.47088246 98.57441472 -78.94993989 98.17551926 -80.4375 97.8125 C-90.76262829 94.81284499 -102.87173494 89.08965341 -111 82 C-111 81.34 -111 80.68 -111 80 C-111.66 80 -112.32 80 -113 80 C-113 79.34 -113 78.68 -113 78 C-113.66 78 -114.32 78 -115 78 C-115 77.34 -115 76.68 -115 76 C-116.485 75.505 -116.485 75.505 -118 75 C-122.58924491 69.64588094 -125.12527383 63.71664485 -127 57 C-127.33 56.01 -127.66 55.02 -128 54 C-128.23529594 49.96240084 -128.18518666 45.91872298 -128.1875 41.875 C-128.19974609 40.7715625 -128.21199219 39.668125 -128.22460938 38.53125 C-128.24087573 29.40040352 -127.31712462 21.86114272 -123.0625 13.6875 C-122.55847656 12.70136719 -122.05445312 11.71523437 -121.53515625 10.69921875 C-120.16030597 8.28186114 -118.82713664 6.09597963 -117 4 C-116.34 4 -115.68 4 -115 4 C-115 3.34 -115 2.68 -115 2 C-114.34 2 -113.68 2 -113 2 C-113 1.34 -113 0.68 -113 0 C-107.64285714 -5 -107.64285714 -5 -104 -5 C-104 -5.66 -104 -6.32 -104 -7 C-72.10349464 -26.17625573 -29.40583324 -21.48744831 0 0 Z " fill="#F6F6F6" transform="translate(249,154)"/>
<path d="M0 0 C0.99 0.33 1.98 0.66 3 1 C2.67 2.32 2.34 3.64 2 5 C-10.21 5 -22.42 5 -35 5 C-35 4.67 -35 4.34 -35 4 C-34.08186523 3.98018066 -33.16373047 3.96036133 -32.21777344 3.93994141 C-28.80328175 3.86173045 -25.38922298 3.77503416 -21.97509766 3.68261719 C-20.49894464 3.64439334 -19.02270057 3.60952897 -17.54638672 3.578125 C-15.42121906 3.53233014 -13.29667458 3.47436163 -11.171875 3.4140625 C-9.2552002 3.36693115 -9.2552002 3.36693115 -7.29980469 3.31884766 C-4.27462676 3.02653615 -2.53950891 2.59418511 0 1 C0 0.67 0 0.34 0 0 Z " fill="#BAB9B9" transform="translate(359,262)"/>
<path d="M0 0 C0.33 0 0.66 0 1 0 C1.125 5.75 1.125 5.75 0 8 C-0.66 8 -1.32 8 -2 8 C-1.67 9.65 -1.34 11.3 -1 13 C-2.32 13.33 -3.64 13.66 -5 14 C-5 14.99 -5 15.98 -5 17 C-5.66 17 -6.32 17 -7 17 C-6.33416691 13.97972618 -5.33954034 11.31430777 -4.0625 8.5 C-3.72347656 7.7471875 -3.38445312 6.994375 -3.03515625 6.21875 C-2.05894873 4.12635049 -1.04374792 2.05941293 0 0 Z " fill="#B3AFB0" transform="translate(262,241)"/>
<path d="M0 0 C2.3125 0.1875 2.3125 0.1875 4 1 C3.67 1.66 3.34 2.32 3 3 C2.01 3.33 1.02 3.66 0 4 C-0.33 4.66 -0.66 5.32 -1 6 C-2.32 5.67 -3.64 5.34 -5 5 C-2.75 2.4375 -2.75 2.4375 0 0 Z " fill="#A7A4A4" transform="translate(133,286)"/>
<path d="M0 0 C0.33 0 0.66 0 1 0 C1.36923077 5.53846154 1.36923077 5.53846154 -0.5 7.875 C-1.2425 8.431875 -1.2425 8.431875 -2 9 C-2.33 8.34 -2.66 7.68 -3 7 C-2.06421005 4.64018187 -1.06652192 2.30368736 0 0 Z " fill="#9D9B9A" transform="translate(262,241)"/>
</svg>
