<svg xmlns="http://www.w3.org/2000/svg" viewBox="0 0 200 160" preserveAspectRatio="xMidYMid meet" xmlns:v="https://vecta.io/nano"><path d="M57.4 115.944V42.472c0-.597 4.864-2.688 14.592-6.272 9.728-3.669 15.317-5.504 16.768-5.504s3.627 1.749 6.528 5.248c2.987 3.499 4.48 6.656 4.48 9.472v33.536h6.272v3.072l-6.272 3.2v24.832c0 4.693 2.048 7.467 6.144 8.32v2.816L91.96 129c-1.877-.768-3.627-2.005-5.248-3.712-1.621-1.792-2.432-3.456-2.432-4.992V85.224H72.76v24.064c0 3.157.341 5.419 1.024 6.784s2.091 2.048 4.224 2.048v3.968l-26.24 11.008L49.72 129c1.877 0 3.669-1.109 5.376-3.328 1.536-2.133 2.304-5.376 2.304-9.728zM77.752 42.6c-1.707 0-3.371.64-4.992 1.92v37.76l7.552-3.328h3.968v-26.88c0-6.315-2.176-9.472-6.528-9.472zM14.208 93.168c-2.133 0-3.968-1.621-5.504-4.864S6.4 81.093 6.4 76.4V49.776c0-1.621 4.48-4.395 13.44-8.32 8.96-4.011 14.123-6.016 15.488-6.016 1.024 0 2.475 1.707 4.352 5.12l1.792 3.456L43.52 47.6c1.109 2.048 2.517 3.072 4.224 3.072v2.56c-1.365.597-3.2 1.493-5.504 2.688-5.376 2.987-8.277 4.48-8.704 4.48-1.28 0-2.901-2.517-4.864-7.552-1.877-5.035-3.413-7.552-4.608-7.552-1.536 0-2.304 1.28-2.304 3.84V77.68c0 3.413.768 5.12 2.304 5.12.341 0 2.987-1.109 7.936-3.328s7.936-3.328 8.96-3.328c2.048 0 3.84 1.664 5.376 4.992 1.621 3.243 2.432 7.424 2.432 12.544v27.264c0 1.621-4.907 4.437-14.72 8.448-9.728 3.925-15.317 5.888-16.768 5.888-.597 0-1.28-.725-2.048-2.176s-1.792-3.499-3.072-6.144c-1.195-2.731-2.304-4.992-3.328-6.784-.939-1.792-2.261-2.688-3.968-2.688v-2.56c1.365-.597 3.157-1.493 5.376-2.688 5.461-2.987 8.405-4.48 8.832-4.48 1.28 0 3.072 2.944 5.376 8.832 2.389 5.888 4.181 8.832 5.376 8.832.853 0 1.664-.341 2.432-1.024s1.152-1.621 1.152-2.816v-28.8c0-3.84-1.067-5.76-3.2-5.76-.683 0-3.371 1.024-8.064 3.072s-7.339 3.072-7.936 3.072z"/><path d="M8.704 88.304l1.356-.642h0l-1.356.642zM19.84 41.456l.602 1.374.011-.005-.613-1.369zm19.84-.896l1.342-.671-.013-.026-.014-.026-1.314.723zm1.792 3.456l-1.326.702.016.03.017.029 1.293-.761zM43.52 47.6l1.319-.714-.002-.004-1.317.718zm4.224 3.072h1.5v-1.5h-1.5v1.5zm0 2.56l.601 1.374.899-.393v-.981h-1.5zM42.24 55.92l-.691-1.332-.019.01-.019.011.729 1.311zm-13.568-3.072l-1.405.524.004.01.004.01 1.398-.545zM32 79.472l-.614-1.369h0L32 79.472zm14.336 1.664l-1.362.629.01.021.011.021 1.342-.671zm-12.288 48.256l.561 1.391.006-.002-.567-1.389zm-18.816 3.712l-1.326.702h0l1.326-.702zm-3.072-6.144l-1.374.601.011.027.012.025 1.35-.653zm-3.328-6.784l-1.329.696.013.024.014.024 1.302-.744zm-3.968-2.688h-1.5v1.5h1.5v-1.5zm0-2.56l-.601-1.374-.899.393v.981h1.5zm5.376-2.688l.711 1.321.008-.005-.72-1.316zm14.208 4.352l-1.397.547.003.008.003.009 1.39-.564zm7.808 7.808l-.997-1.121h0l.997 1.121zM22.144 90.096l-.6-1.375h0l.6 1.375zm-7.936 3.072v-1.5c-1.225 0-2.679-.905-4.148-4.006l-1.356.642-1.356.642c1.603 3.384 3.818 5.722 6.86 5.722v-1.5zm-5.504-4.864l1.356-.642C8.643 84.672 7.9 80.937 7.9 76.4H6.4 4.9c0 4.85.793 9.051 2.448 12.546l1.356-.642zM6.4 76.4h1.5V49.776H6.4 4.9V76.4h1.5zm0-26.624h1.5c0 .239-.12.139.39-.361.446-.437 1.179-.991 2.259-1.659 2.149-1.33 5.432-2.971 9.892-4.925l-.602-1.374-.602-1.374c-4.5 1.971-7.937 3.68-10.268 5.123-1.16.718-2.106 1.407-2.781 2.069-.61.598-1.29 1.453-1.29 2.503h1.5zm13.44-8.32l.613 1.369c4.472-2.002 7.976-3.494 10.522-4.483 1.275-.495 2.29-.857 3.057-1.092a11.65 11.65 0 0 1 .923-.25 3.66 3.66 0 0 1 .274-.05c.07-.01.1-.01.098-.01v-1.5-1.5c-.593 0-1.369.194-2.177.442-.865.266-1.956.656-3.263 1.164-2.616 1.016-6.173 2.532-10.662 4.541l.613 1.369zm15.488-6.016v1.5c-.16 0-.174-.062-.004.055.162.112.402.326.717.697.629.74 1.404 1.919 2.325 3.591l1.314-.723 1.314-.723c-.957-1.74-1.846-3.122-2.667-4.089-.41-.483-.843-.908-1.299-1.223-.449-.309-1.028-.585-1.7-.585v1.5zm4.352 5.12l-1.342.671 1.808 3.487 1.326-.702 1.326-.702-1.776-3.425-1.342.671zm1.792 3.456l-1.293.761 2.024 3.542 1.317-.718 1.317-.718a133.79 133.79 0 0 0-2.072-3.626l-1.293.761zM43.52 47.6l-1.319.714c1.262 2.33 3.089 3.858 5.543 3.858v-1.5-1.5c-.96 0-1.949-.521-2.905-2.286l-1.319.714zm4.224 3.072h-1.5v2.56h1.5 1.5v-2.56h-1.5zm0 2.56l-.601-1.374c-1.41.617-3.278 1.53-5.593 2.731l.691 1.332.691 1.332c2.293-1.189 4.094-2.067 5.415-2.645l-.601-1.374zM42.24 55.92l-.729-1.311-6.166 3.337c-.717.369-1.26.635-1.64.805a5.96 5.96 0 0 1-.398.166c-.148.053-.011-.017.229-.017v1.5 1.5c.346 0 .667-.117.78-.157.184-.066.393-.153.618-.254.452-.203 1.051-.497 1.784-.875 1.472-.758 3.558-1.887 6.25-3.383l-.728-1.311zm-8.704 4.48v-1.5c.184 0 .181.088-.041-.105-.213-.185-.508-.527-.874-1.095-.729-1.133-1.583-2.911-2.551-5.397l-1.398.545-1.398.545c.994 2.549 1.933 4.547 2.825 5.931.444.69.918 1.292 1.43 1.737.503.437 1.183.839 2.007.839v-1.5zm-4.864-7.552l1.406-.524c-.95-2.547-1.842-4.54-2.685-5.921-.419-.687-.866-1.29-1.352-1.738-.471-.434-1.14-.869-1.977-.869v1.5 1.5c-.24 0-.269-.121-.057.075.197.182.476.523.824 1.094.693 1.136 1.507 2.919 2.435 5.407l1.406-.524zm-4.608-7.552v-1.5c-1.276 0-2.35.581-3.014 1.688-.591.986-.79 2.271-.79 3.652h1.5 1.5c0-1.179.186-1.814.362-2.108.075-.125.134-.165.162-.181s.108-.051.279-.051v-1.5zm-2.304 3.84h-1.5V77.68h1.5 1.5V49.136h-1.5zm0 28.544h-1.5c0 1.772.192 3.309.708 4.455.266.591.647 1.144 1.195 1.55.565.419 1.22.615 1.901.615v-1.5-1.5c-.087 0-.104-.017-.115-.025-.028-.021-.127-.108-.245-.37-.252-.56-.444-1.584-.444-3.224h-1.5zm2.304 5.12v1.5c.298 0 .582-.09.67-.116.157-.047.341-.112.54-.186.402-.149.942-.367 1.61-.647 1.34-.562 3.252-1.4 5.729-2.51L32 79.472l-.614-1.369-5.662 2.481-1.494.601c-.174.064-.292.105-.364.126-.142.043-.014-.012.198-.012v1.5zM32 79.472l.614 1.369c2.462-1.104 4.412-1.921 5.861-2.459.725-.269 1.305-.462 1.75-.584.222-.061.397-.102.53-.126.066-.012.117-.019.154-.023s.054-.004.052-.004v-1.5-1.5c-.468 0-1.009.117-1.536.262-.558.154-1.226.378-1.994.664-1.538.571-3.556 1.418-6.043 2.533L32 79.472zm8.96-3.328v1.5c1.099 0 2.521.886 4.014 4.121l1.362-.629 1.362-.629c-1.579-3.421-3.741-5.863-6.738-5.863v1.5zm5.376 4.992l-1.342.671c1.483 2.967 2.274 6.896 2.274 11.873h1.5 1.5c0-5.263-.831-9.696-2.59-13.215l-1.342.671zm2.432 12.544h-1.5v27.264h1.5 1.5V93.68h-1.5zm0 27.264h-1.5c0-.177.065-.236.006-.144s-.184.247-.432.471c-.497.45-1.311 1.017-2.501 1.7-2.366 1.358-5.973 3.035-10.861 5.032l.568 1.389.567 1.389c4.925-2.013 8.678-3.75 11.219-5.208 1.264-.725 2.29-1.417 3.02-2.076.365-.331.698-.691.948-1.081s.466-.889.466-1.472h-1.5zm-14.72 8.448l-.561-1.391c-4.856 1.96-8.661 3.422-11.424 4.392-1.383.485-2.487.841-3.322 1.074-.888.248-1.328.313-1.461.313v1.5 1.5c.592 0 1.395-.18 2.267-.423.925-.258 2.098-.638 3.51-1.134 2.827-.992 6.681-2.474 11.552-4.44l-.561-1.391zM17.28 135.28v-1.5c.32 0 .371.181.132-.072-.209-.222-.498-.633-.855-1.306l-1.326.702-1.326.702c.412.778.848 1.455 1.321 1.958.444.472 1.135 1.016 2.052 1.016v-1.5zm-2.048-2.176l1.326-.702c-.755-1.427-1.77-3.456-3.048-6.095l-1.35.653-1.35.653 3.097 6.193 1.326-.702zm-3.072-6.144l1.374-.601c-1.207-2.76-2.341-5.074-3.4-6.927l-1.302.744-1.302.744c.989 1.731 2.074 3.94 3.256 6.641l1.374-.601zm-3.328-6.784l1.329-.696c-1.14-2.176-2.917-3.492-5.297-3.492v1.5 1.5c1.034 0 1.902.476 2.639 1.884l1.329-.696zm-3.968-2.688h1.5v-2.56h-1.5-1.5v2.56h1.5zm0-2.56l.601 1.374c1.419-.621 3.252-1.539 5.486-2.741l-.711-1.321-.711-1.321c-2.204 1.187-3.955 2.061-5.266 2.635l.601 1.374zm5.376-2.688l.72 1.316 6.263-3.338c.728-.369 1.279-.636 1.665-.807.195-.086.326-.139.406-.167.151-.053.016.016-.222.016v-1.5-1.5c-.344 0-.665.116-.778.156a8.66 8.66 0 0 0-.622.253c-.457.202-1.063.496-1.807.873-1.493.758-3.61 1.886-6.345 3.382l.72 1.316zm8.832-4.48v1.5c-.255 0-.261-.132.018.135.25.24.588.669 1.005 1.353.828 1.36 1.815 3.473 2.956 6.391l1.397-.547 1.397-.547c-1.162-2.97-2.224-5.273-3.188-6.857-.479-.788-.974-1.463-1.491-1.959-.489-.469-1.199-.969-2.094-.969v1.5zm5.376 8.832l-1.39.564c1.204 2.968 2.285 5.264 3.245 6.84.477.783.961 1.453 1.46 1.944.459.452 1.16.984 2.061.984v-1.5-1.5c.304 0 .333.164.045-.12-.248-.245-.584-.679-1.004-1.368-.833-1.368-1.842-3.488-3.027-6.408l-1.39.564zm5.376 8.832v1.5c1.292 0 2.445-.528 3.428-1.403l-.996-1.121-.997-1.121c-.552.491-1.021.645-1.435.645v1.5zm2.432-1.024l.996 1.121c1.142-1.015 1.656-2.391 1.656-3.937h-1.5-1.5c0 .843-.254 1.344-.649 1.695l.997 1.121zm1.152-2.816h1.5v-28.8h-1.5-1.5v28.8h1.5zm0-28.8h1.5c0-2.01-.271-3.756-.989-5.049-.372-.669-.877-1.24-1.539-1.638s-1.406-.574-2.172-.574v1.5 1.5c.301 0 .493.065.628.146s.299.231.46.522c.348.627.611 1.761.611 3.592h1.5zm-3.2-5.76v-1.5c-.421 0-.916.133-1.324.257a27.74 27.74 0 0 0-1.738.609c-1.377.525-3.247 1.303-5.602 2.331l.6 1.375.6 1.375c2.339-1.021 4.159-1.778 5.47-2.277a24.93 24.93 0 0 1 1.542-.543c.434-.132.532-.127.452-.127v-1.5zm-8.064 3.072l-.6-1.375c-2.34 1.021-4.152 1.779-5.446 2.28-.648.251-1.148.43-1.51.544-.436.138-.498.122-.38.122v1.5 1.5c.416 0 .909-.143 1.284-.262a29.65 29.65 0 0 0 1.69-.608c1.352-.523 3.209-1.301 5.562-2.328l-.6-1.375z"/></svg>