<svg xmlns="http://www.w3.org/2000/svg" width="379" height="379" xmlns:v="https://vecta.io/nano"><path d="M97.55 29.88l3.439.007h3.883l4.227.016 4.3.004 11.339.025 11.562.02L159 30c.742 3.98 1.126 7.743 1.129 11.79l.01 3.377-.006 3.599.003 3.727-.005 7.776v7.984l.002 11.513.006 3.624-.01 3.338-.002 2.946C160 92 160 92 159 94h61l-.09-39.88-.008-7.483-.016-3.945V38.94l-.007-3.264C220 33 220 33 221 30l24.982-.052 11.599-.024 11.185-.019 4.276-.011 5.97-.008 3.439-.007C285 30 285 30 286 31c.094 1.964.117 3.931.114 5.897v3.822l-.016 4.16-.004 4.233-.025 11.161-.02 11.381L286 94l2.385-.007 22.206-.045 11.417-.024 11.01-.019 4.209-.011 5.876-.008 3.385-.007C349 94 349 94 350 95a121.49 121.49 0 0 1 .129 5.973l.01 3.873-.006 4.217.003 4.293-.005 9.009.004 11.572v8.868l.002 4.268-.007 5.955-.002 3.429C350 159 350 159 349 160c-1.693.098-3.391.126-5.087.126l-3.361.008-3.739-.007-3.936.005c-3.622.004-7.243.002-10.865-.001-3.899-.002-7.798.001-11.697.004h-22.935l-18.631-.001h-2.673l-5.375.001c-16.822.003-33.644 0-50.466-.006-14.45-.004-28.901-.004-43.351.001l-50.279.004-5.356-.001h-2.662c-6.207-.001-12.413.001-18.62.003-7.558.003-15.117.002-22.675-.003H55.711a6137.71 6137.71 0 0 1-12.525-.006l-3.739.007-3.361-.008h-2.925C31 160 31 160 30 159a121.49 121.49 0 0 1-.129-5.973l-.01-3.873.006-4.217-.003-4.293.005-9.009-.004-11.572v-8.868l-.002-4.268.007-5.955.002-3.429C30 95 30 95 31 94c1.964-.094 3.931-.117 5.897-.114h3.822l4.16.016 4.233.004 11.161.025 11.381.02L94 94l-.007-2.385-.045-22.206-.024-11.417-.019-11.01-.011-4.209-.008-5.876-.007-3.385c.163-3.407.26-3.471 3.67-3.632z" fill="#ccb96c"/><path d="M163.973 219.871l3.873-.01 4.217.006 4.293-.003 9.009.005 11.572-.004h8.868l4.268-.002 5.955.007 3.429.002C222 220 222 220 223 221l.127 4.973.009 3.263-.006 3.611.005 3.779v10.289l.001 10.745-.005 18.048.002 20.894.003 17.908.002 10.709-.007 11.933.006 3.611-.009 3.263-.001 2.854C223 349 223 349 222 350a121.49 121.49 0 0 1-5.973.129l-3.873.01-4.217-.006-4.293.003c-3.003.001-6.006-.001-9.009-.005a3818.9 3818.9 0 0 0-11.572.004c-2.956.004-5.912.002-8.868 0a2030.6 2030.6 0 0 0-4.268.002 1592.4 1592.4 0 0 1-5.955-.007l-3.429-.002C158 350 158 350 157 349l-.127-4.973-.009-3.263.006-3.611-.005-3.779v-10.289l-.001-10.745.005-18.048-.002-20.894-.003-17.908-.002-10.709.007-11.933-.006-3.611.009-3.263.001-2.854c.261-4.397 3.374-3.246 7.098-3.249z" fill="#ccb96d"/><path d="M38.086 219.871l3.873-.01 4.201.006 4.289-.003 8.991.005 11.548-.004h8.856l4.26-.002 5.94.007 3.42.002C96 220 96 220 97 221l.129 5.957.01 3.863-.006 4.208.003 4.286-.005 8.996.004 11.545v8.856l.002 4.257-.007 5.947-.002 3.423C97 285 97 285 96 287l-24.93.104-11.575.047-11.165.039-4.265.022-5.962.016-3.432.013C32 287 32 287 30 285c-.241-2.67-.241-2.67-.227-6.102v-3.882l.031-4.211.009-4.296.049-11.314.04-11.542L30 221c2.763-1.381 4.995-1.127 8.086-1.129z" fill="#c9b76c"/><path d="M287.663 219.753l3.423.004 3.873-.009 4.201.022 4.289.001 8.991.023 11.548.02 8.856.013 4.26.006 5.94.022 3.42.012C349 220 349 220 350 221l.129 5.957.01 3.863-.006 4.208.003 4.286-.005 8.996.004 11.545v8.856l.002 4.257-.007 5.947-.002 3.423C350 285 350 285 349 287h-65c-4.736-14.207-2.045-33.039-1.687-47.937l.052-2.522.187-7.13.045-2.181c.245-7.029.245-7.029 5.068-7.476z" fill="#ccb86c"/><path d="M349 223h1l.052 24.148.024 11.212.019 10.815.011 4.131.008 5.775.007 3.324C350 285 350 285 349 287h-7v-2l2.438-.937c2.453-.826 2.453-.826 3.563-2.062l.205-5.53.06-3.579.051-3.895.063-3.964.153-10.451.161-10.657L349 223z" fill="#a8a856"/><path d="M95 260h1c.81 5.669 1.155 11.152 1.125 16.875l.012 2.297c-.01 5.575-.01 5.575-1.137 7.828h-5v-3l3-1 1-23z" fill="#c3b370"/><path d="M96 268h1l.063 8.375.025 2.406c.025 5.992.025 5.992-1.088 8.219l-4-1 4-2v-16z" fill="#eeecaf"/><path d="M158 220h13v1l-14 2 1-3z" fill="#e2d98f"/><path d="M348 282l2 3-1 2h-7v-2l2.438-.937c2.453-.826 2.453-.826 3.563-2.062z" fill="#a8a078"/><path d="M283 282h2v2l4 1v2h-5l-1-5z" fill="#c1915d"/></svg>