<?xml version="1.0" standalone="no"?>
<!DOCTYPE svg PUBLIC "-//W3C//DTD SVG 20010904//EN"
 "http://www.w3.org/TR/2001/REC-SVG-20010904/DTD/svg10.dtd">
<svg version="1.0" xmlns="http://www.w3.org/2000/svg"
 width="411.000000pt" height="379.000000pt" viewBox="0 0 411.000000 379.000000"
 preserveAspectRatio="xMidYMid meet">

<g transform="translate(0.000000,379.000000) scale(0.100000,-0.100000)"
fill="#000000" stroke="none">
<path d="M1396 2248 c29 -116 51 -214 49 -218 -3 -4 -23 -10 -45 -14 -32 -5
-40 -11 -40 -27 0 -11 19 -91 42 -177 22 -86 47 -182 54 -212 69 -301 122
-486 204 -710 23 -63 51 -143 62 -177 11 -35 24 -63 29 -63 25 0 457 369 638
545 303 294 451 443 507 510 28 33 94 111 147 172 54 62 97 117 97 121 0 5
-33 21 -72 36 -40 16 -88 34 -107 42 -91 39 -326 124 -406 147 -49 14 -225 64
-390 111 -165 47 -314 90 -332 95 -32 9 -32 9 -48 -40 -14 -41 -20 -49 -36
-44 -22 7 -401 115 -404 115 -1 0 22 -95 51 -212z m178 53 c53 -24 96 -47 96
-51 0 -10 -117 -120 -127 -120 -10 0 -93 207 -85 215 3 3 9 4 12 3 4 -2 51
-23 104 -47z m420 -118 c60 -18 112 -36 115 -39 3 -2 -29 -39 -72 -81 l-76
-77 -54 17 -53 17 -24 91 c-23 89 -23 92 -5 105 11 8 28 11 39 8 12 -4 70 -22
130 -41z m-264 -104 c0 -12 -7 -19 -20 -19 -22 0 -26 20 -8 38 15 15 28 6 28
-19z m547 17 c21 -8 79 -27 128 -41 50 -15 96 -32 102 -39 10 -9 -2 -26 -56
-80 l-69 -68 -55 16 -54 16 -25 100 c-21 89 -23 110 -12 110 2 0 21 -7 41 -14z
m-134 -93 c2 -5 7 -20 11 -35 5 -23 3 -28 -13 -28 -50 0 -63 20 -34 52 17 19
29 23 36 11z m-517 -22 c16 -5 54 -17 85 -25 55 -15 57 -17 70 -63 8 -27 14
-51 14 -55 0 -13 -137 -148 -150 -148 -7 0 -28 57 -48 132 -34 123 -36 133
-20 150 9 10 17 18 18 18 1 0 15 -4 31 -9z m1160 -46 c62 -20 115 -39 118 -43
4 -7 -41 -59 -101 -115 -28 -26 -31 -27 -63 -14 -29 13 -35 22 -51 83 -29 109
-32 124 -23 124 4 0 58 -16 120 -35z m-663 -95 l66 -20 15 -53 15 -52 -72 -73
c-68 -68 -73 -72 -107 -66 -75 13 -82 21 -107 124 l-23 94 38 39 c42 44 54 44
175 7z m427 15 c0 -25 -4 -30 -20 -26 -21 4 -23 8 -17 26 8 19 37 20 37 0z
m-33 -126 c36 -10 66 -20 67 -21 1 -2 7 -15 14 -30 8 -20 19 -28 37 -28 14 0
25 -2 25 -5 0 -3 -48 -53 -107 -110 -101 -97 -109 -103 -123 -86 -8 10 -22 21
-32 24 -18 6 -47 94 -56 165 -4 40 -2 47 34 83 27 28 44 37 57 33 11 -3 48
-14 84 -25z m-683 -35 c3 -9 6 -27 6 -40 0 -22 -3 -24 -22 -19 -36 11 -41 21
-23 49 20 30 30 33 39 10z m420 -120 c17 -45 -5 -69 -43 -45 -12 8 -12 13 3
35 19 30 31 33 40 10z m-478 -31 c103 -28 108 -33 121 -109 5 -28 -1 -38 -58
-93 -35 -33 -69 -61 -76 -61 -7 0 -22 33 -34 73 -11 39 -29 100 -40 134 -20
64 -23 83 -14 83 3 0 48 -12 101 -27z m418 -118 c43 -14 84 -25 90 -25 6 0 19
-19 30 -41 l18 -40 -103 -99 c-101 -96 -104 -99 -109 -72 -3 16 -16 32 -32 40
-20 9 -31 26 -42 63 -33 109 -32 117 10 160 21 21 43 39 49 39 5 0 46 -11 89
-25z m-250 -162 c9 -22 -5 -34 -32 -27 -26 8 -28 19 -4 33 24 14 29 13 36 -6z
m-27 -162 c56 -14 65 -20 82 -54 l19 -37 -74 -66 c-41 -37 -76 -65 -78 -63 -6
7 -66 221 -66 237 0 11 7 12 28 7 15 -5 55 -15 89 -24z"/>
</g>
</svg>
